<svg width="761" height="49" viewBox="0 0 761 49" fill="none" xmlns="http://www.w3.org/2000/svg">
<path d="M45.3771 23.7506C50.0666 23.7939 64.0054 21.2658 67.6115 24.2056C70.3574 26.4442 76.3798 25.0077 79.5441 24.0659C82.3387 23.2342 84.8789 21.2765 87.571 20.7043C91.922 19.7794 95.6965 19.7173 100.386 19.7606C109.566 19.8453 116.4 22.256 125.517 24.4902C132.24 26.1377 137.95 30.227 144.828 30.2905C151.234 30.3496 160.932 32.4655 166.76 29.6184C171.043 27.5261 175.237 21.5203 179.775 20.5557C187.947 18.8188 200.984 21.2218 209.047 23.2621C215.204 24.82 221.732 27.627 228.309 27.6877C233.786 27.7383 255.744 31.5864 260.192 25.046C262.448 21.7289 265.115 19.1773 265.907 15.0414C266.765 10.553 267.559 11.1485 263.65 9.14859C261.306 7.94965 247.219 2.65567 244.564 5.91152C241.506 9.66303 241.335 14.6457 244.451 18.2166C247.795 22.0499 250.962 27.1992 254.958 30.4324C262.047 36.1698 268.105 40.4236 277.478 40.5101C285.081 40.5803 292.311 38.5262 299.735 38.4667C302.682 38.4431 307.336 38.295 310.116 37.3132C316.142 35.1844 319.509 27.5761 326.698 27.4713C336.538 27.3279 346.403 27.6532 356.243 27.744C362.863 27.8051 372.288 29.6991 378.178 26.822" stroke="#339AF0" stroke-width="4" stroke-linecap="round"/>
<path d="M402.658 27.1723C402.911 29.3622 421.393 28.6588 423.255 29.0491C436.329 31.7896 450.894 28.7419 464.048 28.8633C472.819 28.9443 486.59 30.5029 493.512 24.3877C496.915 21.3809 509.291 23.74 513.25 24.5699C517.891 25.5428 521.612 29.1659 525.808 31.12C533.049 34.4925 541.012 35.7891 548.673 37.7027C557.335 39.8664 562.944 43.2957 570.661 37.7182C578.472 32.0736 586.04 24.2631 591.659 16.548C600.191 4.83252 616.2 13.8296 625.992 19.1137C646.425 30.1399 666.596 35.2035 689.793 30.3845C703.463 27.5445 715.708 23.3795 728.72 29.3071C740.662 34.7469 722.144 31.9675 728.72 19.1137" stroke="#339AF0" stroke-width="4" stroke-linecap="round"/>
<path d="M372.431 42.9634C372.59 41.7124 373.168 40.4771 373.608 39.3069C374.601 36.6632 375.898 34.1514 377.212 31.6554C377.906 30.3364 378.774 29.0713 379.401 27.7199C380.109 26.1952 380.38 24.3869 380.858 22.7784C381.269 21.3975 381.466 19.8584 382.297 18.6608C382.629 18.1829 382.897 17.9073 383.071 17.3597C383.994 14.4559 385.879 12.3133 385.908 9.15511" stroke="#4E5F71" stroke-width="4" stroke-linecap="round"/>
<path d="M393.026 43.8526C393.999 42.7778 394.709 40.9724 395.351 39.6918C397.712 34.9846 398.644 29.6067 400.373 24.6569C401.581 21.1978 402.843 17.4044 404.754 14.2724C405.579 12.92 406.573 11.2774 407.656 10.0962C407.941 9.78592 408.254 9.42946 408.51 9.09459C408.766 8.75975 408.683 8.21092 408.934 7.84174" stroke="#4E5F71" stroke-width="4" stroke-linecap="round"/>
<path d="M733.376 14.9279C733.178 14.7306 732.681 14.7322 732.434 14.7298C731.63 14.722 730.79 14.8563 730.002 15.0111C729.472 15.1152 728.943 15.2257 728.411 15.3292C727.32 15.5416 726.144 15.4072 725.039 15.5335C724.913 15.5479 724.791 15.569 724.78 15.7153C724.741 16.2463 724.734 16.8162 724.772 17.3481C724.882 18.894 725.431 20.3555 726.002 21.7852C726.636 23.3686 726.994 25.2853 726.995 26.9935C726.996 27.7642 726.987 28.5701 727.047 29.3387C727.118 30.2449 726.979 31.1617 727.072 32.0612C727.125 32.5806 727.233 33.0951 727.319 33.6111C727.347 33.7787 727.368 34.1509 727.487 34.2951C727.66 34.5058 728.36 34.5623 728.604 34.599C729.478 34.7303 730.365 34.7216 731.239 34.6072C732.264 34.473 733.396 34.2931 734.385 33.9853C734.807 33.8539 735.227 33.6563 735.634 33.4838C735.881 33.3792 735.815 33.2428 735.887 33.0174C736.026 32.5794 735.946 32.066 735.921 31.6208C735.814 29.6826 735.603 27.7393 735.294 25.8269C735.084 24.5256 734.905 23.2133 734.655 21.914C734.44 20.8014 734.394 19.6775 733.981 18.6057C733.771 18.0603 733.804 17.8929 733.127 17.7717C732.134 17.5942 730.847 17.7291 729.96 18.2373C729.867 18.2905 729.26 18.6106 729.256 18.6636C729.218 19.0997 729.705 19.8194 729.872 20.1769C730.344 21.1819 730.867 22.1607 731.336 23.1678C731.493 23.5058 731.635 23.759 731.679 24.1282C731.839 25.4652 731.831 26.808 731.931 28.1473C731.973 28.718 732.108 29.2728 732.103 29.8476C732.1 30.2521 732.026 30.6696 732.046 31.0717C732.054 31.2454 731.947 31.8752 731.906 31.8256C731.494 31.3303 731.15 30.7897 730.703 30.3188C730.255 29.8465 729.762 29.4164 729.267 28.9939C729.076 28.8306 728.749 28.5947 728.918 28.2999" stroke="#339AF0" stroke-width="4.9" stroke-linecap="round"/>
<path d="M735.042 16.8435C735.74 16.5412 736.761 16.7074 737.502 16.6663C738.452 16.6137 739.442 16.516 740.393 16.6086C741.586 16.7247 742.763 16.8713 743.961 16.8134C744.682 16.7785 745.414 16.7952 746.127 16.7947C746.745 16.7942 748.107 16.4126 748.478 16.9683C749.169 18.004 749.134 19.5957 749.276 20.8024C749.354 21.465 749.344 22.0814 749.457 22.7399C749.609 23.6221 749.771 24.8109 750.216 25.571C750.393 25.8717 750.459 26.1846 750.679 26.5138C751.037 27.0505 751.007 27.1032 750.314 27.0916C748.978 27.0691 747.841 27.7927 746.559 27.9947C745.169 28.2138 743.825 28.6099 742.455 28.834C741.558 28.9808 740.635 29.5634 739.77 29.6722C739.646 29.6878 738.982 29.7142 738.936 29.645C738.662 29.2346 738.421 28.4605 738.306 27.9795C737.841 26.0385 737.018 24.5514 735.924 22.9125C735.357 22.0643 734.893 21.0424 734.788 20.0176C734.749 19.6396 739.212 20.0356 739.722 20.061C741.473 20.1478 743 19.703 744.677 19.2745C744.698 19.269 745.55 18.9669 745.639 19.077C745.769 19.2379 744.665 20.3348 744.652 20.3482C743.692 21.3366 742.582 22.1392 741.489 22.9704C741.217 23.1768 739.541 24.022 740.48 24.1539C741.927 24.3571 743.346 24.6867 744.815 24.5506C744.955 24.5376 745.26 24.4206 744.86 24.604C743.583 25.1902 742.262 25.6775 740.879 25.9458C740.469 26.0254 740.155 26.1738 740.554 25.7364C741.295 24.9238 742.015 24.0704 742.838 23.3394C743.742 22.5374 744.727 21.7947 745.561 20.9185C745.855 20.6103 746.146 19.9758 746.474 20.4666C746.92 21.135 746.003 21.9648 745.676 22.5759C745.479 22.9435 745.761 23.7476 745.814 24.1713C745.827 24.2736 745.812 24.2495 745.831 24.1969C746.496 22.3342 747.283 20.496 748.049 18.6732C748.555 17.4688 749.104 16.4422 749.785 15.3441C749.987 15.0187 749.942 14.4123 750.178 14.7663C750.296 14.9417 750.462 15.9605 750.526 15.9809C750.834 16.0785 751.253 15.881 751.535 15.9373C752.589 16.1473 751.504 19.3187 751.763 20.1247C751.915 20.6004 752.042 21.1091 752.224 21.5787C752.412 22.0643 752.413 22.5837 752.593 23.0755C752.792 23.6216 753.196 24.0351 753.347 24.6213C753.412 24.8755 753.899 26.4048 753.566 26.3385C752.679 26.1618 751.72 25.4488 750.905 25.0743C750.283 24.7887 749.631 24.5693 749.018 24.2759C748.533 24.0441 746.905 24.7632 746.486 24.9279C745.688 25.2417 744.169 25.6783 743.441 25.4221" stroke="#ADB5BD" stroke-width="4.9" stroke-linecap="round"/>
<path d="M753.327 15.4826C751.846 16.4719 749.808 17.4402 748.016 17.5269" stroke="#FFD700" stroke-width="2.1" stroke-linecap="round"/>
<path d="M753.329 18.4854C753.673 19.1723 750.978 19.4711 750.631 19.5824C750.384 19.6617 749.106 20.246 749.365 20.2977" stroke="#FFD700" stroke-width="2.1" stroke-linecap="round"/>
<path d="M754.529 21.3262C753.492 21.8635 752.319 22.1198 751.266 22.6332C750.882 22.8207 750.477 23.087 750.065 23.1388" stroke="#FFD700" stroke-width="2.1" stroke-linecap="round"/>
<path d="M754.258 24.3746C753.867 25.2246 752.335 25.2893 751.589 25.4887C750.874 25.6802 750.388 25.7903 749.793 26.1873" stroke="#FFD700" stroke-width="2.1" stroke-linecap="round"/>
<path d="M721.395 16.3558C721.456 16.579 721.369 16.8589 721.37 17.0883C721.374 17.7692 721.501 18.4518 721.602 19.1227C721.845 20.7271 721.973 22.3818 722.343 23.9622C722.535 24.7807 722.705 25.6183 722.975 26.4153C723.123 26.8529 723.397 27.4175 723.397 27.8871C723.398 28.6733 723.071 29.4972 723.126 30.2785C723.153 30.6715 722.8 31.3132 722.633 31.6768C722.578 31.7948 722.028 30.8721 721.932 30.7282C720.643 28.7977 718.987 26.9488 718.001 24.8331C717.639 24.0574 718.248 23.4024 718.388 22.7013C718.476 22.2571 718.33 21.7872 718.411 21.3369C718.456 21.089 718.395 20.8152 718.252 20.6021" stroke="#339AF0" stroke-width="5.6" stroke-linecap="round"/>
<path d="M732.475 20.1955C732.736 20.1709 732.992 19.9792 733.236 19.8884C733.824 19.669 734.417 19.5076 735.019 19.3341C735.664 19.1483 736.357 19.1005 737.009 19.2576C737.955 19.4858 739.117 19.4767 739.849 20.2169C739.883 20.2517 739.349 20.0794 739.266 20.0629C738.699 19.9498 738.157 19.7893 737.57 19.786C736.125 19.778 735.064 20.081 733.833 20.8548C733.311 21.183 732.039 21.6952 732.035 22.4257C732.035 22.4428 734.676 21.2702 734.848 21.1912C735.422 20.9274 735.931 20.7693 736.51 20.6119C737.057 20.4633 737.397 20.361 737.96 20.4886C738.849 20.69 739.444 21.1717 740.152 21.6875C740.295 21.7918 740.509 21.9032 740.617 22.0403C740.752 22.2105 740.203 21.9072 740.005 21.8181C739.651 21.6583 739.311 21.4822 738.967 21.3016C738.23 20.9147 737.483 20.6066 736.722 21.0265C736.11 21.3639 735.625 21.6396 735.082 22.0777C734.388 22.6363 733.429 23.0979 733.12 24.0076C732.892 24.6798 733.576 23.8938 733.832 23.744C734.811 23.172 735.871 22.6618 736.972 22.3801C737.33 22.2883 737.631 22.1703 738.028 22.2449C738.683 22.3677 739.423 23.0174 739.943 23.4326C740.06 23.5264 740.214 23.5905 740.316 23.673C740.471 23.7983 739.335 23.5935 739.159 23.5595C738.366 23.4062 737.512 23.2021 736.709 23.3709C735.91 23.5387 735.082 23.9637 734.426 24.4477C733.939 24.807 733.31 25.2179 733.018 25.7678C732.897 25.9965 732.868 26.2623 732.742 26.491C732.57 26.8021 733.144 25.9036 733.369 25.6287C734.483 24.2697 736.372 23.9323 738.016 23.5094C739.072 23.2378 739.76 23.1268 740.823 23.4812C741.46 23.6934 741.668 24.0939 742.121 24.5779C742.384 24.8599 742.635 25.1501 742.835 25.4769C742.914 25.6053 743.485 26.2476 743.24 26.1893C742.153 25.9302 741.445 24.4615 740.302 24.4414C739.444 24.4263 738.537 24.379 737.732 24.7287C737.164 24.9756 736.554 25.3666 736.054 25.7263C735.791 25.9151 735.652 26.2734 735.378 26.4278C734.752 26.7812 735.628 26.7794 735.912 26.781C737.889 26.7919 739.771 26.6272 741.754 26.6382C742.246 26.641 740.838 26.2776 740.371 26.1247C739.952 25.9877 739.68 25.7913 739.282 25.9241C738.864 26.0636 738.532 26.2365 738.093 26.2872C737.834 26.3171 737.554 26.3044 737.518 26.6148C737.449 27.205 736.207 27.6779 735.759 27.9377C735.48 28.1001 735.405 28.6865 735.403 28.9669" stroke="#339AF0" stroke-width="2.1" stroke-linecap="round"/>
<path d="M736.418 18.7705C737.445 18.6635 738.472 18.6445 739.503 18.5953C739.728 18.5845 740.078 18.4654 740.3 18.5677C740.52 18.669 740.809 18.6407 741.047 18.732C741.189 18.7867 741.339 18.8144 741.481 18.8626" stroke="#339AF0" stroke-width="2.1" stroke-linecap="round"/>
<path d="M739.62 19.2368C739.747 19.2533 739.975 19.4261 740.096 19.4958C740.549 19.7584 740.678 20.2647 740.926 20.6824C741.071 20.9269 741.22 21.2235 741.306 21.4962C741.445 21.9395 741.626 22.3504 741.776 22.7947C741.85 23.0151 741.951 23.1801 742.054 23.3873C742.118 23.5183 742.113 23.6942 742.186 23.8152C742.24 23.9032 742.32 24.0173 742.334 24.1222C742.418 24.7287 741.741 23.0342 741.603 22.4378C741.383 21.4815 741.279 20.4816 741.285 19.5024" stroke="#339AF0" stroke-width="2.1" stroke-linecap="round"/>
<path d="M28.7045 35.7459C28.9263 35.9155 29.419 35.8486 29.664 35.8185C30.4626 35.7205 31.2779 35.4769 32.0387 35.2199C32.5505 35.047 33.06 34.868 33.5732 34.6956C34.6271 34.3415 35.8104 34.3202 36.8894 34.0498C37.0128 34.0189 37.1312 33.982 37.1225 33.8355C37.0908 33.3041 37.023 32.7382 36.9157 32.2159C36.6038 30.6978 35.8677 29.321 35.1128 27.9789C34.2768 26.4925 33.6699 24.6395 33.4441 22.9463C33.3423 22.1823 33.2447 21.3824 33.0842 20.6283C32.8949 19.7393 32.9122 18.8122 32.7023 17.9326C32.5812 17.4248 32.4062 16.9289 32.2534 16.4287C32.2038 16.2662 32.1336 15.9001 31.997 15.7727C31.7975 15.5866 31.0966 15.6225 30.8494 15.6182C29.9656 15.603 29.0881 15.7281 28.2364 15.9564C27.2377 16.2242 26.1391 16.5514 25.1994 16.9865C24.7984 17.1721 24.4085 17.4231 24.0273 17.6477C23.7961 17.7838 23.8791 17.9105 23.8378 18.1433C23.7576 18.5957 23.9044 19.0942 23.9874 19.5323C24.3488 21.4395 24.8131 23.3383 25.3704 25.1935C25.7495 26.456 26.1 27.7332 26.5187 28.9884C26.8773 30.0632 27.0713 31.1712 27.6212 32.1796C27.901 32.6926 27.8908 32.8628 28.5777 32.8939C29.5851 32.9395 30.8431 32.6366 31.6563 32.0162C31.7415 31.9512 32.3007 31.5542 32.2982 31.501C32.2782 31.0637 31.7012 30.4143 31.488 30.0819C30.8885 29.1475 30.2407 28.2461 29.6442 27.3093C29.444 26.9949 29.2695 26.7626 29.1772 26.4024C28.8428 25.0981 28.6747 23.7657 28.3999 22.4511C28.2828 21.891 28.0764 21.3587 28.0051 20.7884C27.9549 20.387 27.9735 19.9634 27.9014 19.5673C27.8702 19.3962 27.8933 18.7578 27.9408 18.8016C28.4141 19.2385 28.827 19.729 29.3313 20.1371C29.8372 20.5465 30.3834 20.908 30.9289 21.2618C31.1399 21.3986 31.4948 21.5895 31.3668 21.9039" stroke="#339AF0" stroke-width="4.9" stroke-linecap="round"/>
<path d="M26.801 34.0658C26.149 34.4573 25.1154 34.4266 24.3863 34.5647C23.4506 34.7419 22.4827 34.9687 21.5275 35.002C20.3293 35.0437 19.1436 35.053 17.964 35.2678C17.2531 35.3973 16.5256 35.4769 15.8188 35.5711C15.2066 35.6527 13.9066 36.21 13.4658 35.7079C12.6441 34.7721 12.4697 33.1896 12.1704 32.012C12.006 31.3654 11.9352 30.753 11.7362 30.1151C11.4697 29.2605 11.1529 28.1034 10.6115 27.4084C10.3973 27.1334 10.2902 26.8321 10.0289 26.5345C9.60319 26.0496 9.62601 25.9934 10.3151 25.9138C11.6421 25.7605 12.6745 24.8938 13.9187 24.525C15.2675 24.1252 16.5476 23.5559 17.8764 23.1536C18.7466 22.8902 19.5846 22.1914 20.4285 21.9697C20.5489 21.9381 21.2041 21.8246 21.259 21.887C21.5846 22.2579 21.9251 22.9936 22.1024 23.4554C22.8177 25.3185 23.8294 26.6845 25.1297 28.1653C25.8026 28.9317 26.3974 29.8837 26.636 30.8859C26.7239 31.2555 22.2484 31.4494 21.7391 31.4914C19.9918 31.6354 18.5366 32.277 16.9306 32.9222C16.9099 32.9305 16.1053 33.3419 16.0026 33.2444C15.8527 33.102 16.8031 31.8695 16.8142 31.8546C17.6362 30.7485 18.6305 29.807 19.6054 28.8393C19.8474 28.5991 21.3976 27.5409 20.4497 27.5336C18.9886 27.5222 17.5388 27.382 16.0997 27.7101C15.9629 27.7413 15.6759 27.8974 16.0482 27.663C17.2378 26.914 18.483 26.2574 19.8185 25.8096C20.2146 25.6769 20.5062 25.4885 20.1685 25.9744C19.5409 26.8774 18.9393 27.8181 18.2188 28.6509C17.4283 29.5648 16.5493 30.4305 15.8377 31.4087C15.5874 31.7528 15.3815 32.4201 14.9921 31.9767C14.4618 31.3727 15.2618 30.4296 15.5063 29.7807C15.6533 29.3904 15.2683 28.6304 15.1598 28.2173C15.1335 28.1176 15.1511 28.1396 15.1394 28.1941C14.7255 30.128 14.1863 32.0538 13.6666 33.9615C13.3232 35.222 12.9142 36.3118 12.3829 37.4899C12.2255 37.839 12.3501 38.4342 12.0692 38.1143C11.93 37.9559 11.6315 36.9678 11.5652 36.956C11.2472 36.8996 10.8579 37.1505 10.5702 37.1318C9.49786 37.0622 10.1565 33.7757 9.7942 33.0106C9.58039 32.5591 9.38855 32.0715 9.1462 31.6299C8.89565 31.1733 8.82642 30.6585 8.58371 30.1945C8.31426 29.6794 7.85983 29.3225 7.63313 28.7613C7.53482 28.5179 6.85109 27.0658 7.18992 27.0878C8.09228 27.1464 9.13676 27.7272 9.99446 27.9912C10.6487 28.1926 11.3234 28.3245 11.97 28.5348C12.4807 28.7009 14.0006 27.7739 14.394 27.5556C15.1439 27.1396 16.5927 26.5072 17.3478 26.6655" stroke="#ADB5BD" stroke-width="4.9" stroke-linecap="round"/>
<path d="M33.9996 14.6375C35.9711 16.1149 35.8471 18.8386 36.0359 21.073C36.2233 23.2902 37.0573 25.336 37.403 27.5146C37.5468 28.4203 37.6146 29.3931 38.0175 30.2344C38.2128 30.6422 38.1884 31.0762 38.4518 31.476C38.5318 31.5975 38.4583 31.1853 38.4591 31.0399C38.462 30.5245 38.4706 30.0088 38.4677 29.4934C38.4645 28.9263 38.3637 28.3656 38.3879 27.7977C38.4336 26.7239 39.3168 28.933 39.2243 28.9325C38.9967 28.9312 38.5225 25.9711 38.5089 25.6371C38.448 24.1459 38.81 22.6223 39.1186 21.1694C39.376 19.9572 38.9838 18.7711 38.8064 17.5739C38.7716 17.3389 38.5825 16.6994 38.7578 16.5079C39.0202 16.221 39.1794 17.1714 39.2973 17.5419C39.7576 18.9879 40.0706 20.462 40.423 21.935C40.6392 22.8387 41.0116 23.7269 41.5987 24.4547C42.195 25.194 42.5367 26.2022 42.9225 27.0693C43.0434 27.3411 43.2958 27.689 43.2942 27.9884C43.2929 28.2241 43.2025 28.4199 43.2013 28.6472C43.2008 28.734 43.2771 29.1816 43.1794 29.0139C42.9022 28.5378 43.0016 27.7407 42.9861 27.2234C42.9437 25.8055 42.9344 24.3832 42.9849 22.9654C43.0245 21.856 43.4269 20.2997 43.0753 19.1887C43.0383 19.072 42.922 18.4715 43.1366 18.852C43.7568 19.9513 44.0534 21.3908 44.4146 22.5966C44.7959 23.8698 45.0558 25.1959 45.3447 26.4929C45.4125 26.7975 45.6055 26.9823 45.6625 27.2878C45.743 27.7191 45.9532 28.2148 45.9673 28.6427C45.9703 28.736 45.791 28.2417 45.7919 28.0865" stroke="#339AF0" stroke-width="4.9" stroke-linecap="round"/>
<path d="M42.8412 29.2301C42.4717 29.2742 41.8766 30.0428 41.6701 30.3488C41.3869 30.7686 41.0023 31.3354 40.5529 31.5819C39.6435 32.0805 38.6689 32.4886 37.7348 32.9492" stroke="#339AF0" stroke-width="4.9" stroke-linecap="round"/>
<path d="M21.4509 36.7652C20.8225 36.945 20.1502 36.9936 19.4974 36.9992C18.8717 37.0045 18.2633 37.1673 17.6493 37.2661C17.1122 37.3526 16.5833 37.3502 16.0433 37.4018C15.8557 37.4197 15.6375 37.4465 15.4745 37.5449C15.3157 37.6407 15.2177 37.7425 15.0783 37.8606C14.7919 38.1033 14.3473 38.2262 14.0043 38.3461C13.6105 38.4838 13.2221 38.5916 12.8121 38.6762C12.6361 38.7125 12.4168 38.7474 12.2569 38.8262" stroke="#ADB5BD" stroke-width="2.1" stroke-linecap="round"/>
<path d="M15.7533 36.3524C13.8137 36.4801 10.7136 37.1851 9.28947 38.5935" stroke="#FFD700" stroke-width="2.1" stroke-linecap="round"/>
<path d="M13.8614 32.8787C13.3925 32.9347 12.716 33.6082 12.317 33.84C11.626 34.2413 10.8483 34.6569 10.056 34.7656C9.44162 34.8499 8.99138 35.1287 8.34627 35.1251" stroke="#FFD700" stroke-width="2.1" stroke-linecap="round"/>
<path d="M12.415 30.5937C10.5434 30.5834 8.97956 31.1496 7.28571 31.7038" stroke="#FFD700" stroke-width="2.1" stroke-linecap="round"/>
<path d="M10.9795 26.5258C9.82387 26.6477 8.65464 27.8742 7.49141 28.2142C6.89148 28.3895 6.42206 28.736 5.84277 28.964" stroke="#FFD700" stroke-width="2.1" stroke-linecap="round"/>
<path d="M24.9083 20.6962C24.6559 20.6948 24.3759 21.003 24.1797 21.1349C23.9072 21.3179 23.5993 21.4904 23.301 21.6269C22.6552 21.9224 22.1616 22.3223 21.5781 22.7099C21.0131 23.0853 20.4596 23.3659 19.8559 23.6719C19.1959 24.0064 18.896 24.3402 18.4508 24.8904C18.2397 25.1514 18.0005 25.3806 17.7968 25.6544C17.4257 26.1533 17.1937 26.4307 17.1903 27.0367C17.1897 27.1446 17.253 26.9901 17.2928 26.9321C17.6521 26.4089 18.007 25.8917 18.4668 25.4479C19.0265 24.9079 19.7014 24.4649 20.2844 23.945C20.7097 23.5658 21.0947 23.1698 21.6562 22.9938C22.7058 22.6649 23.7913 22.3632 24.8745 22.1994C24.9797 22.1835 25.0933 22.1814 25.1995 22.1917C25.2273 22.1943 25.5222 22.2363 25.5081 22.2603C25.3984 22.4458 24.8643 22.6316 24.6867 22.7558C24.2761 23.0428 23.9197 23.4153 23.4966 23.6825C23.1162 23.9228 22.6708 24.0493 22.3082 24.3193C21.7516 24.7339 21.315 25.2904 20.7525 25.6899C20.2415 26.053 19.7978 26.4346 19.3508 26.8767C18.7198 27.5007 17.7921 28.0293 17.5843 28.9405C17.5584 29.0538 17.5614 29.0755 17.6319 28.963C18.1049 28.2084 18.8162 27.612 19.5216 27.0878C20.3543 26.4691 21.1812 25.8805 21.9657 25.1998C22.4387 24.7892 23.1306 24.31 23.4231 23.7331C23.5226 23.5367 23.732 23.2965 23.9577 23.2582C24.4412 23.1761 24.9587 23.1923 25.4489 23.1677C25.4904 23.1657 25.7689 23.2055 25.5979 23.2832C24.1481 23.9427 22.7223 24.6339 21.3464 25.4416C20.6848 25.8299 19.7516 26.323 19.5404 27.1485C19.3007 28.0851 18.5417 28.8499 18.4236 29.8083C18.4033 29.9725 18.3772 30.1265 18.3763 30.2922C18.375 30.5244 18.5628 29.9564 18.5951 29.8985C19.0036 29.1644 19.5099 28.4873 20.0843 27.8745C20.7496 27.1647 21.6131 26.7283 22.463 26.276C23.105 25.9342 23.8259 25.7047 24.44 25.3122C24.6366 25.1866 24.8864 25.1343 25.1071 25.0547C25.4568 24.9286 25.9665 24.8758 26.2751 24.6726C26.5038 24.5219 26.8646 24.4747 27.1179 24.3364C27.3962 24.1844 27.1588 24.3544 27.0696 24.4254C26.74 24.6873 26.419 24.9602 26.0873 25.2194C24.697 26.306 23.1638 27.1805 21.8209 28.3301C21.458 28.6407 21.0427 28.9215 20.758 29.3053C20.3937 29.7963 20.3024 30.4717 20.0096 31.0084C19.7836 31.4225 19.6791 31.9985 19.581 32.4649C19.5199 32.7556 19.393 33.0557 19.3913 33.3589C19.3909 33.4305 19.4416 33.2249 19.4689 33.1587C19.6881 32.6268 19.9713 32.1326 20.2672 31.6405C20.6662 30.9773 20.9765 30.2589 21.4061 29.6146C21.7434 29.1087 22.2128 28.7075 22.5574 28.2068C22.7476 27.9303 22.8333 27.7891 23.0991 27.5886C23.9512 26.9458 25.1723 26.7957 26.2006 26.6216C27.2641 26.4415 28.3376 26.2193 29.4199 26.2253C29.6765 26.2267 29.6756 26.5282 29.8086 26.7753C30.0324 27.1911 30.4067 27.6879 30.489 28.1552C30.551 28.5074 30.6696 28.9489 30.8109 29.2718C30.9339 29.5528 30.2185 29.0359 30.1721 29.0134C28.6178 28.2594 26.9708 28.9253 25.5087 29.6183C24.6778 30.0121 23.9312 30.5122 23.3591 31.2627C23.1651 31.5171 23.0318 31.7511 22.8993 32.0342C22.7725 32.3049 22.7534 32.6276 22.6174 32.8958C22.4697 33.1871 22.3376 33.3942 22.129 33.664C21.8923 33.9699 21.7783 34.562 21.3602 34.4401C21.0089 34.3376 20.9657 33.669 20.9395 33.3325C20.9205 33.0883 20.9754 32.9123 21.0578 32.6897C21.1725 32.3796 21.4597 32.0923 21.636 31.8138C21.8853 31.4196 22.0023 30.9212 22.3086 30.5657C22.8709 29.9129 23.3925 29.2539 24.1119 28.7632C24.9664 28.1805 25.8999 27.7559 26.8117 27.2779C27.6009 26.8642 28.537 26.9133 29.3915 26.7539C30.1072 26.6204 30.751 26.6914 31.4686 26.6954" stroke="#339AF0" stroke-width="2.1" stroke-linecap="round"/>
<path d="M23.105 33.4283C23.1354 33.3388 23.1974 33.285 23.267 33.2192C23.6455 32.8611 24.055 32.5348 24.4444 32.1886C25.2196 31.4994 25.9637 30.7774 26.7011 30.0482C27.0768 29.6765 27.4314 29.6155 27.9611 29.494C29.3861 29.167 30.8815 29.0408 32.3449 29.0489" stroke="#339AF0" stroke-width="2.1" stroke-linecap="round"/>
<path d="M25.0626 32.4045C25.6338 32.2556 26.174 31.8372 26.7136 31.5973C27.181 31.3895 27.6593 31.2482 28.1095 31.0013C28.4049 30.8394 28.7168 30.6873 28.9598 30.4469C29.1619 30.2471 29.4225 30.1356 29.6894 30.0188C30.0826 29.8466 30.6328 29.657 31.0668 29.6594" stroke="#339AF0" stroke-width="2.1" stroke-linecap="round"/>
<path d="M28.2954 30.9089C28.5163 31.4021 29.6099 31.8552 30.0769 32.1591C30.3041 32.307 30.6228 32.2162 30.753 32.4801" stroke="#339AF0" stroke-width="2.1" stroke-linecap="round"/>
</svg>
