<svg width="100" height="100" viewBox="0 0 100 100" fill="none" xmlns="http://www.w3.org/2000/svg">
<path d="M43.258 9.75785C38.5548 9.75785 37.2499 15.8681 37.2499 19.7715C37.2499 21.9547 36.0165 28.8963 39.0301 29.7573C39.6894 29.9457 39.8768 30.1868 40.3652 30.6752C41.8193 32.1293 44.0288 32.1496 45.984 32.5667C47.8571 32.9663 49.8595 32.7892 51.7696 32.7892C53.4075 32.7892 55.0657 32.8495 56.5261 32.0382C57.1666 31.6823 59.6062 29.5193 59.7527 29.0063C60.482 26.4539 62.678 24.2799 61.7554 21.051C60.8614 17.9217 59.0843 15.8486 56.8877 13.652C55.3448 12.1091 42.2567 6.53532 42.2567 10.2585" stroke="#566575" stroke-width="3" stroke-linecap="round"/>
<path d="M13.2635 68.2973C13.0973 70.1684 11.6627 72.278 10.9013 73.7748C10.0647 75.4192 9.24326 76.9602 8.48135 78.6757C7.24628 81.4566 5.73203 85.556 4.04488 87.9009C0.950983 92.201 5.51603 89.7027 7.55949 89.7027C10.5297 89.7027 13.5227 89.5652 16.4901 89.7027C19.7497 89.8537 22.8784 91 26.2273 91C28.5828 91 24.9098 83.8745 23.7498 82.4234C22.5392 80.9091 20.9232 78.0909 20.1199 76.0811C18.706 72.5439 15.6301 70.326 14.3006 67" stroke="#566575" stroke-width="3" stroke-linecap="round"/>
<path d="M77.7018 68C76.4866 69.4787 77.2185 73.466 77.2185 75.2891C77.2185 77.6511 77.2185 80.013 77.2185 82.375C77.2185 84.2045 77.2185 86.0341 77.2185 87.8636C77.2185 90.1135 79.6553 88.9091 81.5681 88.9091C83.7081 88.9091 85.5966 88.919 87.6093 89.4028C89.168 89.7774 90.8361 90.4773 92.4422 90.4773C93.8585 90.4773 95.2042 91 96.7918 91C98.4602 91 97.0334 86.583 97.0334 85.5114C97.0334 83.5176 96.0285 76.9382 97.1408 75.4343C97.5927 74.8234 98 72.1891 98 71.3977C98 70.5459 98 69.694 98 68.8422C98 68.1861 96.9151 69.5682 96.3085 69.5682C93.5624 69.5682 90.3659 70.0909 87.3676 70.0909C85.6855 70.0909 79.3545 70.007 78.6684 68.5227" stroke="#566575" stroke-width="3" stroke-linecap="round"/>
<path d="M22.7328 71.6392C22.9418 69.9667 24.6428 68.3556 25.4613 66.9232C26.197 65.6357 27.1594 64.5579 27.8867 63.2852C28.5562 62.1135 29.3926 60.3918 30.2447 59.445C31.214 58.368 31.7491 56.7279 32.67 55.807C33.6455 54.8316 34.2893 53.0648 34.8596 51.7816C35.5762 50.1693 36.2763 48.7768 37.1334 47.234C38.9389 43.9841 40.3041 41.0441 41.8325 37.9873" stroke="#566575" stroke-width="3" stroke-linecap="round"/>
<path d="M72.7558 70.1234C72.6749 69.3957 72.044 68.7313 71.7789 68.0686C71.3034 66.8797 70.5103 65.3926 69.8925 64.2452C69.2697 63.0885 68.62 61.1755 67.7535 60.1356C66.7493 58.9305 66.1019 56.3248 65.766 54.8133C65.4921 53.5807 64.0042 52.605 63.6775 51.4616C62.9147 48.7915 60.2945 46.8513 59.0458 44.3539C57.8447 41.9518 56.6324 39.6956 55.4751 37.381" stroke="#566575" stroke-width="3" stroke-linecap="round"/>
<path d="M28.2803 81.3407C36.7187 81.3407 44.987 81.6438 53.4434 81.6438C56.7651 81.6438 59.9327 81.0375 63.2964 81.0375C64.8275 81.0375 66.1307 80.4312 67.6924 80.4312C69.2196 80.4312 70.871 80.7343 72.24 80.7343" stroke="#566575" stroke-width="3" stroke-linecap="round"/>
</svg>
