<svg width="380" height="308" viewBox="0 0 380 308" fill="none" xmlns="http://www.w3.org/2000/svg">
<rect width="380" height="308" fill="#16191D"/>
<path d="M93.1431 229C97.555 226.353 101.104 221.037 103.682 216.826C105.656 213.605 108.45 210.88 110.717 207.866C112.018 206.137 113.097 204.259 114.567 202.671C116.147 200.965 117.419 198.998 118.689 197.056C118.993 196.591 120.102 199.189 120.244 199.474C121.602 202.19 122.468 205.12 123.577 207.94C124.995 211.552 126.305 215.167 127.995 218.64C129.577 221.892 131.092 224.945 133.301 227.835C134.322 229.169 135.315 230.531 136.128 231.994C136.514 232.69 133.972 232.327 133.918 232.327C129.916 232.327 125.827 232.571 121.836 232.203C119.814 232.017 117.699 231.827 115.703 231.488C111.825 230.829 107.635 230.772 103.707 230.772C101.53 230.772 99.1798 230.669 97.1416 230.55C95.7532 230.468 94.5601 230.167 93.1431 229.883" stroke="#FD7E14" stroke-width="2" stroke-linecap="round"/>
<path d="M108.275 223.124C110.6 220.882 112.465 218.601 114.442 216.097C116.011 214.11 116.265 211.736 118.41 214.806C119.738 216.706 120.322 218.99 120.322 221.26C120.322 222.359 121.183 223.504 121.183 224.558" stroke="#FD7E14" stroke-width="2" stroke-linecap="round"/>
<path d="M112.717 219.109C113.519 219.109 114.389 219.682 115.171 219.682C116.457 219.682 117.742 219.682 119.028 219.682" stroke="#FD7E14" stroke-width="2" stroke-linecap="round"/>
<path d="M170.143 134.444C170.185 134.065 170.619 133.588 170.781 133.284C171.662 131.631 172.693 130.184 173.76 128.676C175.576 126.111 177.039 123.492 178.281 120.561C179.892 116.759 182.475 113.967 185.063 110.959C187.327 108.327 189.022 105.214 191.313 102.605C191.572 102.31 192.416 101 192.882 101C193.473 101 194.193 102.547 194.424 102.888C195.915 105.081 197.34 107.286 198.706 109.576C202.935 116.667 205.839 124.324 209.344 131.768C209.761 132.654 209.782 134.628 210.474 135.246C211.03 135.743 211.565 136.584 210.647 136.584C201.28 136.584 191.913 136.852 182.55 136.852C180.048 136.852 177.033 137.348 174.638 136.525C174.121 136.347 172.615 136.092 172.297 135.648C172.016 135.255 170.607 135.506 170.143 135.246" stroke="#228BE6" stroke-width="2" stroke-linecap="round"/>
<path d="M186.143 130.684C186.143 128.673 187.128 126.831 187.128 124.854C187.128 123.781 186.985 122.747 186.964 121.685C186.944 120.683 187.128 119.781 187.128 118.779C187.128 118.257 186.982 117.698 186.982 117.212C186.982 116.589 188.424 116.251 188.898 116.153C190.088 115.908 190.948 116.03 192.136 116.03C193.401 116.03 194.834 116.09 196.076 116.354C196.978 116.547 197.143 117.667 197.143 118.394C197.143 119.411 195.969 119.727 195.501 120.512C194.872 121.569 192.975 122.162 191.889 122.683C191.038 123.092 189.782 123.436 188.806 123.436C188.699 123.436 188.18 123.296 188.496 123.296C189.195 123.296 189.873 123.577 190.576 123.594C191.374 123.613 192.176 123.594 192.975 123.594C193.886 123.594 196.6 123.782 196.651 125.047C196.684 125.879 197.158 127.162 196.733 127.979C196.299 128.811 196.296 128.877 195.419 129.345C194.526 129.821 193.599 130.043 192.71 130.492C191.633 131.036 190.614 130.999 189.427 130.999C188.638 130.999 187.953 130.527 187.128 130.527" stroke="#228BE6" stroke-width="2" stroke-linecap="round"/>
<path d="M219.324 214.518C221.505 209.685 225.507 205.997 228.072 201.407C228.817 200.073 229.598 198.846 230.489 197.603C231.319 196.446 232.118 195.268 232.906 194.08C233.283 193.511 233.779 192.966 234.015 192.314C234.29 191.554 234.738 190.602 235.143 189.921C235.427 189.443 235.564 188.949 235.738 188.407C235.949 187.753 236.092 186.575 236.496 186.052C236.607 185.908 236.75 185.446 236.856 185.249C237.185 184.635 237.557 184.137 237.83 183.501C237.943 183.238 238.362 184.067 238.39 184.109C239.431 185.707 240.385 187.346 241.276 189.043C242.317 191.028 243.006 193.128 243.918 195.164C245.852 199.479 247.344 204.108 249.69 208.21C250.997 210.496 252.165 212.768 253.316 215.154C253.52 215.577 253.658 216.117 253.983 216.453C254.295 216.776 254.898 217.02 255.129 217.378C255.232 217.539 254.756 217.378 254.569 217.378C253.336 217.378 252.148 217.266 250.935 217.032C247.508 216.372 244.016 216.201 240.536 216.201C238.567 216.201 236.622 215.864 234.665 215.864C232.317 215.864 230.02 216.874 227.675 216.874C224.865 216.874 222.11 216.866 219.324 216.705C218.909 216.681 217.844 216.421 218.223 215.995C218.693 215.468 219.445 214.647 219.648 214.014" stroke="#575757" stroke-width="2" stroke-linecap="round"/>
<path d="M369.914 234.011C367.063 230.375 364.557 226.336 361.72 222.727C359.948 220.472 358.751 217.518 357.032 215.142C356.521 214.437 355.399 213.05 355.188 212.188C354.985 211.358 354.452 210.906 353.936 210.272C353.322 209.516 353.487 208.444 353.026 207.77C352.468 206.955 352.112 205.867 351.569 205.162C350.695 204.027 350.567 204.248 349.635 205.827C348.25 208.172 346.974 210.68 345.674 213.093C342.654 218.701 340.595 224.08 338.368 229.939C338.035 230.816 337.577 232.452 336.934 233.053C334.239 235.575 339.216 235.449 340.189 235.449C343.064 235.449 345.94 235.449 348.815 235.449C356.202 235.449 363.99 235.449 371.143 235.449" stroke="#575757" stroke-width="2" stroke-linecap="round"/>
<path d="M291.45 268.371C288.517 267.514 287.888 265.43 287.231 263.031C286.181 259.197 285.591 254.484 286.874 250.619C287.593 248.451 289.771 246.279 291.604 244.742C293.656 243.02 296.028 242.263 298.801 241.788C300.922 241.425 303.529 241.233 305.606 241.848C308.641 242.745 310.157 244.438 312.106 246.472C313.984 248.433 314.492 251.827 314.896 254.289C315.168 255.941 315.285 258.007 314.879 259.644C314.32 261.899 311.223 264.928 308.975 266.104C306.586 267.353 304.033 267.488 301.54 268.52C298.549 269.759 295.35 269.599 292.199 268.968C291.616 268.851 289.165 268.944 289.017 268.491C288.859 268.005 288.89 267.249 288.388 267.029" stroke="#575757" stroke-width="2" stroke-linecap="round"/>
<path d="M127.365 94.1947C126.901 91.1743 128.523 89.7226 130.42 88.1125C133.45 85.54 137.472 83.0122 141.516 82.5398C143.785 82.2747 146.674 83.3296 148.842 84.3404C151.27 85.4724 152.959 87.3013 154.562 89.613C155.789 91.3814 157.064 93.663 157.387 95.8054C157.857 98.935 156.964 101.024 155.945 103.651C154.962 106.182 152.101 108.078 150.041 109.485C148.659 110.43 146.837 111.41 145.181 111.735C142.902 112.181 138.847 110.656 136.831 109.116C134.689 107.48 133.487 105.223 131.497 103.401C129.11 101.214 127.901 98.2479 127.141 95.1254C127 94.5477 125.88 92.366 126.228 92.0404C126.601 91.6918 127.299 91.3997 127.286 90.8517" stroke="#228BE6" stroke-opacity="0.4" stroke-width="2" stroke-linecap="round"/>
<path d="M288.927 174.537C289.166 180.516 289.925 186.362 289.273 192.334C289.017 194.684 288.76 197.034 288.504 199.383C288.427 200.085 288.301 200.414 289.305 200.36C291.999 200.215 294.683 199.831 297.373 199.623C300.74 199.362 303.986 199.471 307.335 199.836C309.673 200.091 312.011 200.347 314.349 200.602C314.763 200.647 317.586 201.107 317.551 200.708C317.317 198.027 316.829 195.476 316.341 192.829C315.742 189.576 316.151 186.363 315.69 183.15C315.183 179.61 314.89 176.18 315.276 172.64C315.294 172.475 315.541 171.519 315.342 171.369C314.748 170.923 312.022 171.341 311.267 171.442C308.074 171.87 305.054 172.608 301.817 172.87C298.636 173.127 295.513 173.474 292.394 174.042C291.316 174.238 290.057 174.369 288.959 174.249" stroke="#575757" stroke-width="2" stroke-linecap="round"/>
<path d="M68.7374 243.407C69.8121 237.52 70.35 231.65 72.2917 225.965C73.0556 223.728 73.8195 221.491 74.5835 219.254C74.8116 218.586 75.0074 218.293 74.0154 218.126C71.3548 217.678 68.6517 217.466 65.9813 217.081C62.6386 216.599 59.4953 215.783 56.3076 214.695C54.0818 213.934 51.8559 213.174 49.63 212.414C49.2359 212.279 46.5825 211.214 46.5292 211.61C46.1707 214.278 46.0899 216.873 45.9868 219.563C45.8602 222.869 44.7581 225.914 44.5053 229.15C44.2266 232.716 43.7627 236.126 42.6116 239.497C42.5581 239.653 42.1081 240.533 42.2694 240.722C42.7511 241.287 45.503 241.475 46.2612 241.542C49.4706 241.822 52.5791 241.763 55.7952 242.215C58.9553 242.66 62.079 243.004 65.246 243.132C66.3411 243.177 67.5985 243.324 68.6438 243.681" stroke="#FD7E14" stroke-opacity="0.4" stroke-width="2" stroke-linecap="round"/>
<path d="M250.297 194.92C255.566 194.393 260.578 191.047 265.683 189.716C269.034 188.841 273.401 188.239 276.453 186.544C277.803 185.793 279.921 184.663 281.411 184.663" stroke="#575757" stroke-width="2" stroke-linecap="round"/>
<path d="M243.143 225.45C246.323 225.45 249.384 228.31 251.829 230.377C257.221 234.937 262.584 239.872 267.451 245.232C268.482 246.368 272.587 248.716 274.086 248.928C276.624 249.287 279.022 254.176 281.143 255.45" stroke="#575757" stroke-width="2" stroke-linecap="round"/>
<path d="M298.99 235.649C299.12 230.74 298.052 225.384 298.496 220.585C298.692 218.456 299.123 216.384 299.219 214.229C299.334 211.637 300.629 208.866 300.297 206.25" stroke="#575757" stroke-width="2" stroke-linecap="round"/>
<path d="M323.781 189.227C325.894 189.462 326.937 194.686 327.987 196.086C328.816 197.191 329.641 197.843 330.317 199.128C331.694 201.745 333.547 204.079 334.394 206.959C334.993 208.995 337.37 214.659 338.924 215.436" stroke="#575757" stroke-width="2" stroke-linecap="round"/>
<path d="M320.143 254.098C322.466 253.465 326.603 250.643 328.427 248.986C329.401 248.1 331.232 247.328 332.374 246.656C335.026 245.096 338.635 243.214 341.693 242.45" stroke="#575757" stroke-width="2" stroke-linecap="round"/>
<path d="M174.339 65.3103C169.776 67.2661 164.265 62.2215 161.221 59.4893C158.137 56.7211 155.661 52.8971 156.223 48.5713C156.793 44.1834 160.737 41.532 163.819 38.7749C164.92 37.7896 166.899 36.4558 168.376 36.12C170.72 35.5874 173.281 35.4396 175.674 35.0977C177.908 34.7786 179.35 35.2012 180.856 36.9576C183.713 40.2906 185.382 42.5052 186.038 46.7682C186.39 49.0564 186.432 51.0381 185.726 53.1571C185.096 55.0473 185.074 56.8201 183.738 58.4103C182.17 60.2772 180.154 61.3775 178.315 62.8825C177.527 63.5271 176.672 63.8013 175.759 64.2881C174.859 64.7682 173.876 65.8214 172.806 65.8214" stroke="#228BE6" stroke-opacity="0.4" stroke-width="2" stroke-linecap="round"/>
<path d="M68.7902 193.255C67.2875 192.982 66.0326 190.359 65.3544 189.266C63.8517 186.843 62.0644 183.887 62.1457 180.932C62.2599 176.783 64.4069 172.926 67.8106 170.738C70.7881 168.824 73.981 167.771 77.394 166.933C80.23 166.236 82.8899 165.339 85.6286 166.734C89.6701 168.793 92.308 173.99 92.7984 178.405C93.1028 181.144 93.3924 183.431 92.8126 186.185C92.5331 187.513 92.334 189.137 91.7762 190.345C91.2139 191.563 90.3549 191.739 89.604 192.688C88.9065 193.569 87.5205 193.628 86.7361 194.334C86.2736 194.751 85.1306 194.881 84.507 195.03C83.4504 195.284 82.474 195.675 81.4403 195.925C80.3665 196.184 78.9593 196.833 77.8625 196.833C76.4267 196.833 75.1449 196.406 73.7594 196.01C72.478 195.644 71.5536 194.922 70.4798 194.178C69.878 193.762 68.889 193.632 68.4779 193C68.1597 192.51 67.7562 191.716 67.2569 191.467" stroke="#FD7E14" stroke-opacity="0.4" stroke-width="2" stroke-linecap="round"/>
<path d="M224.361 81.3914C225.006 81.9871 224.937 82.6818 225.135 83.6411C225.752 86.6169 226.103 89.7442 226.103 92.7908C226.103 94.9619 226.321 97.1496 226.321 99.2886C226.321 100.479 225.928 101.553 225.885 102.707C225.875 102.997 225.385 103.917 225.885 104.014C226.455 104.125 225.714 104.704 225.764 104.995C225.78 105.082 229.789 104.084 230.314 104.027C231.809 103.863 233.384 103.877 234.888 103.801C237.367 103.675 239.87 103.788 242.353 103.788C244.051 103.788 245.75 103.788 247.448 103.788C248.162 103.788 248.988 104.113 249.674 104.291C250.761 104.573 251.933 104.894 253.062 104.894C253.44 104.894 252.389 104.514 252.118 104.24C250.494 102.602 249.936 99.1611 249.734 96.9886C249.389 93.2557 250.529 89.7248 250.702 86.0291C250.806 83.8283 250.497 81.6919 250.497 79.5061C250.497 79.0884 250.625 78.4834 250.327 78.1739C249.781 77.6063 246.664 78.5989 245.971 78.7269C244.44 79.0102 242.943 79.4354 241.41 79.7072C239.747 80.0021 238.153 79.9476 236.485 80.0466C235.479 80.1063 234.408 80.257 233.4 80.3734C232.578 80.4681 231.32 80.2389 230.556 80.5996C228.714 81.4693 226.084 80.7127 224.143 80.7127" stroke="#228BE6" stroke-opacity="0.4" stroke-width="2" stroke-linecap="round"/>
<path d="M200.143 59.2473C200.748 57.6751 203.798 56.4095 204.885 55.1441C206.884 52.8183 209.288 50.5974 210.82 47.9175C211.561 46.6202 212.218 45.3986 212.978 44.1126C214.272 41.9228 215.811 39.6681 217.379 37.6527C217.939 36.9325 218.052 35.6287 218.6 35.0261C219.101 34.475 223.686 42.8295 223.967 43.4595C225.994 48.0094 227.642 52.5779 229.376 57.2454C229.562 57.7451 231.141 60.8332 230.64 60.7664C226.787 60.2528 223.225 59.2473 219.31 59.2473C215.669 59.2473 212.023 59.2473 208.42 59.2473C205.585 59.2473 202.918 58.4806 200.143 58.4806" stroke="#228BE6" stroke-opacity="0.4" stroke-width="2" stroke-linecap="round"/>
<path d="M158.145 106.39C159.629 106.575 161.926 109.812 162.964 110.85C164.171 112.057 165.558 113.086 166.747 114.275C168.624 116.152 170.986 117.593 172.78 119.611C173.117 119.99 174.794 121.085 174.632 121.085" stroke="#228BE6" stroke-opacity="0.4" stroke-width="2" stroke-linecap="round"/>
<path d="M149.543 79.5092C149.776 76.7155 152.133 73.6939 154.004 71.8234C155.658 70.1687 157.464 66.589 159.579 65.5313" stroke="#228BE6" stroke-opacity="0.4" stroke-width="2" stroke-linecap="round"/>
<path d="M189.327 46.8941C190.223 46.8941 190.753 47.2525 191.676 47.2525C194.222 47.2525 196.514 46.8644 198.984 46.5556C201.04 46.2986 202.984 46.1773 205.097 46.1773" stroke="#228BE6" stroke-opacity="0.4" stroke-width="2" stroke-linecap="round"/>
<path d="M221.942 63.0225C225.86 66.9404 229.483 71.1705 232.336 75.9251" stroke="#228BE6" stroke-opacity="0.4" stroke-width="2" stroke-linecap="round"/>
<path d="M209.039 125.385C209.234 123.243 211.167 122.347 212.822 121.363C216.779 119.011 221.204 117.077 224.968 114.454C227.319 112.816 229.951 111.718 232.455 110.352C232.977 110.067 233.885 109.743 234.128 109.257" stroke="#228BE6" stroke-opacity="0.4" stroke-width="2" stroke-linecap="round"/>
<path d="M209.039 64.4561C208.399 70.2854 207.235 76.0325 206.909 81.8986C206.781 84.1948 206.288 86.4962 205.814 88.7482C205.313 91.1242 205.264 93.5127 204.539 95.8566C203.844 98.1061 202.946 100.776 202.946 103.164" stroke="#228BE6" stroke-opacity="0.4" stroke-width="2" stroke-linecap="round"/>
<path d="M180.367 70.1906C180.643 70.2213 181.182 70.3964 181.362 70.6287C183.129 72.9004 184.283 76.1814 185.544 78.7526C186.679 81.0683 187.405 83.7088 188.252 86.1597C188.675 87.3862 192.383 95.3638 191.836 95.6376" stroke="#228BE6" stroke-opacity="0.4" stroke-width="2" stroke-linecap="round"/>
<path d="M162.804 93.4871C163.435 94.0481 164.442 93.877 165.233 94.1243C167.401 94.8017 169.537 95.5797 171.725 96.1951C173.381 96.6609 175.254 96.3331 176.862 96.7924C180.9 97.9461 185.111 98.7541 188.968 100.297" stroke="#228BE6" stroke-opacity="0.4" stroke-width="2" stroke-linecap="round"/>
<path d="M223.376 95.2792C221.579 95.0796 219.779 94.1671 218.258 93.2482C214.547 91.0063 211.036 88.5436 207.187 86.538C203.643 84.6907 200.271 82.2841 197.172 79.7482C192.837 76.2014 187.888 73.4111 183.951 69.4738" stroke="#228BE6" stroke-opacity="0.4" stroke-width="2" stroke-linecap="round"/>
<path d="M202.946 65.8897C200.619 66.1806 197.871 68.7754 195.778 69.892C193.542 71.0843 191.109 72.0269 188.789 73.0579C188.106 73.3612 187.64 73.8607 186.937 74.1331C183.831 75.3375 180.072 76.3474 177.22 78.0756C173.672 80.2262 169.862 81.7351 166.129 83.4915C164.196 84.4013 162.317 85.6452 160.295 86.319" stroke="#228BE6" stroke-opacity="0.4" stroke-width="2" stroke-linecap="round"/>
<path d="M221.941 97.788C216.855 97.788 212.016 97.2892 207.008 96.3544C203.131 95.6307 199.174 95.7901 195.32 95.08C191.91 94.452 188.614 93.7416 185.185 93.4672C180.477 93.0906 176.127 91.3367 171.366 91.3367C168.226 91.3367 165.106 90.9783 162.087 90.9783" stroke="#228BE6" stroke-opacity="0.4" stroke-width="2" stroke-linecap="round"/>
<path d="M256.459 211.766C266.688 211.766 276.918 212.579 287.195 212.579C293.087 212.579 298.067 215.213 303.783 216.15C308.509 216.925 313.116 218.194 318.021 218.275C319.858 218.305 321.476 219.088 323.354 219.088C324.905 219.088 326.352 219.075 327.874 219.405C329.836 219.829 331.766 220.715 333.75 220.715" stroke="#575757" stroke-width="2" stroke-linecap="round"/>
<path d="M88.0654 196.79C89.0421 196.912 90.3347 198.474 90.913 199.14C92.6138 201.098 94.7337 202.712 96.3595 204.699C97.3804 205.947 99.764 207.884 100.269 209.4" stroke="#FD7E14" stroke-opacity="0.4" stroke-width="2" stroke-linecap="round"/>
<path d="M66.0986 211.841C66.0986 208.99 68.0591 205.691 68.6976 202.891C69.0413 201.384 69.353 200.343 69.353 198.824" stroke="#FD7E14" stroke-opacity="0.4" stroke-width="2" stroke-linecap="round"/>
<path d="M75.8613 233.401C79.236 233.401 82.6249 232.994 86.0311 232.994" stroke="#FD7E14" stroke-opacity="0.4" stroke-width="2" stroke-linecap="round"/>
<path d="M119.672 184.529C119.672 180.141 120.628 174.89 118.411 171.01C115.764 166.378 111.129 162.397 107.414 158.682C102.645 153.913 96.8719 149.856 89.7975 149.856C81.029 149.856 73.2505 149.118 64.5812 150.452C60.9048 151.017 57.7573 154.391 54.4597 156.16C51.4348 157.783 48.9457 159.965 46.3344 162.184C41.9855 165.881 38.8515 170.005 36.318 175.072C32.7171 182.274 30.5813 190.258 28.8582 198.012C28.2238 200.867 26.784 203.46 26.3365 206.593C25.7959 210.378 23.7344 214.066 23.2545 217.905C22.51 223.862 23.6124 230.143 23.8499 236.082C23.96 238.835 26.3716 242.015 26.3716 244.732C26.3716 246.185 26.9027 248.661 27.9826 249.741C30.437 252.195 35.0161 254.037 36.5982 257.025C39.187 261.915 46.727 262.069 51.5878 262.069C56.9263 262.069 62.5219 262.655 67.8033 262.034C71.8347 261.559 75.4448 259.98 79.0456 258.952C80.9727 258.401 83.0148 258.134 84.7893 257.306C87.4149 256.08 91.1336 256.77 93.5099 255.449C94.5967 254.846 97.8371 253.358 98.8684 253.243C100.345 253.079 101.928 250.747 103.281 249.951C106.144 248.267 108.085 244.266 109.585 241.265" stroke="#FD7E14" stroke-opacity="0.4" stroke-width="2" stroke-linecap="round" stroke-dasharray="4 4"/>
<path d="M159.696 133C158.604 132.039 156.193 131.481 154.748 131.162C153.754 130.942 152.855 130.778 151.847 130.778C149.786 130.778 147.044 129.868 145.33 128.693C143.463 127.414 141.087 126.691 139.149 125.484C137.787 124.636 136.11 124.298 134.986 123.015C134.39 122.335 133.262 122.02 132.59 121.397C131.631 120.508 130.83 119.478 129.814 118.626C128.9 117.859 128.032 116.646 127.011 116.075C126.18 115.61 124.968 114.8 124.432 113.99C123.749 112.956 122.787 112.056 122.106 110.973C121.177 109.495 120.61 107.328 120.284 105.651C118.274 95.3247 119.157 84.2447 121.097 73.9953C121.51 71.8124 121.72 69.5448 122.386 67.4256C123.265 64.6296 124.672 61.9378 125.358 59.0865C126.203 55.5712 126.848 51.8484 128.511 48.594C129.238 47.1705 129.853 45.6793 130.908 44.4519C132.697 42.3696 134.939 40.8084 136.85 38.9382C138.112 37.704 139.033 36.2699 140.27 34.9881C141.223 34.0004 142.463 32.2074 143.802 31.5866C146.227 30.4625 149.445 29.5099 152.071 29.0629C154.29 28.6854 156.498 27.5817 158.687 27.5817C159.735 27.5817 160.602 27.2543 161.616 27.1016C163.079 26.8813 164.761 27.0879 166.227 27.0879C168.731 27.0879 171.23 27.3348 173.796 27.3348C177.253 27.3348 180.679 28.3684 184.167 28.5692C186.605 28.7095 189.073 29.8263 191.483 30.2425C193.51 30.5925 195.704 31.1876 197.79 31.2849C198.771 31.3306 200.577 31.8374 201.378 32.4644C202.011 32.9597 203.253 32.9448 203.901 33.4519C204.257 33.7306 205.008 33.6274 205.415 33.9457C205.69 34.1612 206.316 34.5289 206.62 34.6864C207.236 35.0053 208.862 35.6721 209.143 36.2225" stroke="#228BE6" stroke-opacity="0.4" stroke-width="2" stroke-linecap="round" stroke-dasharray="4 4"/>
<path d="M232.845 48C236.963 48 241.904 52.2939 244.382 55.0065C245.919 56.6896 248.198 57.755 249.647 59.454C250.208 60.1121 251.388 60.389 251.806 61.0551C252.736 62.5398 254.188 63.7711 255.306 65.1194C259.019 69.5986 263.299 75.3251 263.299 81.2535C263.299 82.3844 263.574 83.4622 263.838 84.5789C264.247 86.3056 264.06 88.1289 264.611 89.8748C265.542 92.8227 264.993 96.1715 264.874 99.1803C264.729 102.841 264.349 106.485 264.349 110.128C264.349 112.795 261.759 114.556 260.673 116.847C258.344 121.765 253.932 125.622 248.48 127.083C245.323 127.93 242.005 128.582 238.766 129.341C237.453 129.649 235.647 130.518 234.289 130.518C233.138 130.518 231.271 131.01 230.22 131.449C228.674 132.093 226.048 132.227 224.444 131.558C223.824 131.299 222.09 131.378 221.425 131.517C220.413 131.728 219.06 131.566 218.143 131.996" stroke="#228BE6" stroke-opacity="0.4" stroke-width="2" stroke-linecap="round" stroke-dasharray="4 4"/>
<path d="M244.678 177.588C244.814 176.363 247.802 174.956 248.66 174.391C251.123 172.771 253.781 171.901 256.381 170.653C258.922 169.433 262.327 167.957 264.291 165.993C266.757 163.528 271.514 162.353 274.694 161.117C276.62 160.368 278.282 159.298 280.03 158.327C281.332 157.604 282.985 157.696 284.419 157.324C292.31 155.279 300.884 155.917 308.8 157.135C310.848 157.45 313.06 159.002 314.923 159.817C318.17 161.237 321.996 161.831 324.54 164.314C329.956 169.601 338.715 170.232 343.503 176.071C344.263 176.998 346.211 178.575 346.564 179.809C346.792 180.609 346.633 181.663 347.187 182.356C348.096 183.493 348.936 184.905 350.248 185.634C352.867 187.088 355.631 190.156 357.102 192.677C359.442 196.688 362.195 202.609 362.195 207.333" stroke="#575757" stroke-width="2" stroke-linecap="round" stroke-dasharray="4 4"/>
<path d="M354.393 245.367C354.078 248.198 349.688 249.766 349.517 252.682C349.468 253.515 348.465 254.672 348.054 255.391C346.476 258.151 344.232 260.892 341.986 263.139C339.715 265.409 337.611 267.154 334.861 269.044C330.782 271.848 327.389 275.524 323.293 278.309C322.013 279.18 319.275 279.898 317.643 279.989C315.448 280.111 311.555 281.9 309.911 280.585C309.057 279.902 305.487 280.255 304.412 280.016C302.654 279.625 300.275 279.989 298.506 279.989C296.086 279.989 294.302 280.235 292.031 280.585C289.004 281.05 286.528 280.643 283.688 280.476C282.573 280.411 281.2 278.825 280.058 278.499C278.124 277.946 275.842 277.063 273.691 277.063C266.924 277.063 263.147 270.071 257.844 267.419C255.273 266.134 252.108 264.987 249.933 263.03C248.007 261.297 246.532 259.464 244.922 257.531C241.654 253.61 241.281 247.487 237.959 243.796C236.028 241.651 237.047 236.629 235.169 235.127C234.208 234.358 234.438 228.666 234.438 227.325" stroke="#575757" stroke-width="2" stroke-linecap="round" stroke-dasharray="4 4"/>
<path d="M143.743 18L146.023 9.24H147.475L149.743 18H148.651L148.075 15.672H145.423L144.847 18H143.743ZM145.639 14.76H147.847L147.175 12.06C147.047 11.548 146.947 11.12 146.875 10.776C146.803 10.432 146.759 10.208 146.743 10.104C146.727 10.208 146.683 10.432 146.611 10.776C146.539 11.12 146.439 11.544 146.311 12.048L145.639 14.76ZM153.986 18.12C153.41 18.12 152.914 18.024 152.498 17.832C152.09 17.64 151.774 17.364 151.55 17.004C151.326 16.644 151.21 16.216 151.202 15.72H152.282C152.282 16.16 152.43 16.508 152.726 16.764C153.03 17.02 153.45 17.148 153.986 17.148C154.49 17.148 154.882 17.024 155.162 16.776C155.45 16.528 155.594 16.184 155.594 15.744C155.594 15.392 155.498 15.084 155.306 14.82C155.122 14.556 154.854 14.372 154.502 14.268L153.314 13.896C152.714 13.712 152.25 13.404 151.922 12.972C151.602 12.54 151.442 12.032 151.442 11.448C151.442 10.976 151.546 10.568 151.754 10.224C151.97 9.872 152.27 9.6 152.654 9.408C153.038 9.208 153.49 9.108 154.01 9.108C154.778 9.108 155.394 9.324 155.858 9.756C156.322 10.18 156.558 10.748 156.566 11.46H155.486C155.486 11.028 155.354 10.692 155.09 10.452C154.834 10.204 154.47 10.08 153.998 10.08C153.534 10.08 153.17 10.192 152.906 10.416C152.65 10.64 152.522 10.952 152.522 11.352C152.522 11.712 152.618 12.024 152.81 12.288C153.002 12.552 153.278 12.74 153.638 12.852L154.838 13.236C155.422 13.42 155.874 13.732 156.194 14.172C156.514 14.612 156.674 15.128 156.674 15.72C156.674 16.2 156.562 16.62 156.338 16.98C156.114 17.34 155.798 17.62 155.39 17.82C154.99 18.02 154.522 18.12 153.986 18.12ZM161.134 18.12C160.598 18.12 160.13 18.016 159.73 17.808C159.338 17.592 159.034 17.292 158.818 16.908C158.602 16.516 158.494 16.06 158.494 15.54V11.7C158.494 11.172 158.602 10.716 158.818 10.332C159.034 9.948 159.338 9.652 159.73 9.444C160.13 9.228 160.598 9.12 161.134 9.12C161.678 9.12 162.146 9.228 162.538 9.444C162.93 9.652 163.234 9.948 163.45 10.332C163.666 10.716 163.774 11.172 163.774 11.7V15.54C163.774 16.06 163.666 16.516 163.45 16.908C163.234 17.292 162.926 17.592 162.526 17.808C162.134 18.016 161.67 18.12 161.134 18.12ZM161.134 17.196C161.614 17.196 161.998 17.044 162.286 16.74C162.582 16.428 162.73 16.028 162.73 15.54V11.7C162.73 11.212 162.582 10.816 162.286 10.512C161.998 10.2 161.614 10.044 161.134 10.044C160.654 10.044 160.266 10.2 159.97 10.512C159.682 10.816 159.538 11.212 159.538 11.7V15.54C159.538 16.028 159.682 16.428 159.97 16.74C160.266 17.044 160.654 17.196 161.134 17.196ZM161.134 14.328C160.918 14.328 160.742 14.26 160.606 14.124C160.478 13.988 160.414 13.808 160.414 13.584C160.414 13.368 160.478 13.196 160.606 13.068C160.742 12.932 160.918 12.864 161.134 12.864C161.35 12.864 161.522 12.932 161.65 13.068C161.786 13.196 161.854 13.368 161.854 13.584C161.854 13.808 161.786 13.988 161.65 14.124C161.522 14.26 161.35 14.328 161.134 14.328ZM168.329 18.12C167.793 18.12 167.325 18.016 166.925 17.808C166.533 17.592 166.229 17.292 166.013 16.908C165.797 16.516 165.689 16.06 165.689 15.54V11.7C165.689 11.172 165.797 10.716 166.013 10.332C166.229 9.948 166.533 9.652 166.925 9.444C167.325 9.228 167.793 9.12 168.329 9.12C168.873 9.12 169.341 9.228 169.733 9.444C170.125 9.652 170.429 9.948 170.645 10.332C170.861 10.716 170.969 11.172 170.969 11.7V15.54C170.969 16.06 170.861 16.516 170.645 16.908C170.429 17.292 170.121 17.592 169.721 17.808C169.329 18.016 168.865 18.12 168.329 18.12ZM168.329 17.196C168.809 17.196 169.193 17.044 169.481 16.74C169.777 16.428 169.925 16.028 169.925 15.54V11.7C169.925 11.212 169.777 10.816 169.481 10.512C169.193 10.2 168.809 10.044 168.329 10.044C167.849 10.044 167.461 10.2 167.165 10.512C166.877 10.816 166.733 11.212 166.733 11.7V15.54C166.733 16.028 166.877 16.428 167.165 16.74C167.461 17.044 167.849 17.196 168.329 17.196ZM168.329 14.328C168.113 14.328 167.937 14.26 167.801 14.124C167.673 13.988 167.609 13.808 167.609 13.584C167.609 13.368 167.673 13.196 167.801 13.068C167.937 12.932 168.113 12.864 168.329 12.864C168.545 12.864 168.717 12.932 168.845 13.068C168.981 13.196 169.049 13.368 169.049 13.584C169.049 13.808 168.981 13.988 168.845 14.124C168.717 14.26 168.545 14.328 168.329 14.328ZM175.524 18.12C174.988 18.12 174.52 18.016 174.12 17.808C173.728 17.592 173.424 17.292 173.208 16.908C172.992 16.516 172.884 16.06 172.884 15.54V11.7C172.884 11.172 172.992 10.716 173.208 10.332C173.424 9.948 173.728 9.652 174.12 9.444C174.52 9.228 174.988 9.12 175.524 9.12C176.068 9.12 176.536 9.228 176.928 9.444C177.32 9.652 177.624 9.948 177.84 10.332C178.056 10.716 178.164 11.172 178.164 11.7V15.54C178.164 16.06 178.056 16.516 177.84 16.908C177.624 17.292 177.316 17.592 176.916 17.808C176.524 18.016 176.06 18.12 175.524 18.12ZM175.524 17.196C176.004 17.196 176.388 17.044 176.676 16.74C176.972 16.428 177.12 16.028 177.12 15.54V11.7C177.12 11.212 176.972 10.816 176.676 10.512C176.388 10.2 176.004 10.044 175.524 10.044C175.044 10.044 174.656 10.2 174.36 10.512C174.072 10.816 173.928 11.212 173.928 11.7V15.54C173.928 16.028 174.072 16.428 174.36 16.74C174.656 17.044 175.044 17.196 175.524 17.196ZM175.524 14.328C175.308 14.328 175.132 14.26 174.996 14.124C174.868 13.988 174.804 13.808 174.804 13.584C174.804 13.368 174.868 13.196 174.996 13.068C175.132 12.932 175.308 12.864 175.524 12.864C175.74 12.864 175.912 12.932 176.04 13.068C176.176 13.196 176.244 13.368 176.244 13.584C176.244 13.808 176.176 13.988 176.04 14.124C175.912 14.26 175.74 14.328 175.524 14.328ZM180.224 18V16.896L182.9 14.052C183.356 13.564 183.688 13.132 183.896 12.756C184.104 12.372 184.208 12.004 184.208 11.652C184.208 11.164 184.072 10.78 183.8 10.5C183.536 10.22 183.172 10.08 182.708 10.08C182.196 10.08 181.792 10.224 181.496 10.512C181.208 10.8 181.064 11.196 181.064 11.7H179.984C180 11.172 180.12 10.716 180.344 10.332C180.576 9.94 180.892 9.64 181.292 9.432C181.7 9.224 182.172 9.12 182.708 9.12C183.236 9.12 183.692 9.224 184.076 9.432C184.468 9.632 184.768 9.92 184.976 10.296C185.184 10.672 185.288 11.12 185.288 11.64C185.288 12.136 185.156 12.628 184.892 13.116C184.628 13.604 184.196 14.16 183.596 14.784L181.436 17.016H185.432V18H180.224Z" fill="#228BE6" fill-opacity="0.9"/>
<path d="M293.743 298L296.023 289.24H297.475L299.743 298H298.651L298.075 295.672H295.423L294.847 298H293.743ZM295.639 294.76H297.847L297.175 292.06C297.047 291.548 296.947 291.12 296.875 290.776C296.803 290.432 296.759 290.208 296.743 290.104C296.727 290.208 296.683 290.432 296.611 290.776C296.539 291.12 296.439 291.544 296.311 292.048L295.639 294.76ZM303.986 298.12C303.41 298.12 302.914 298.024 302.498 297.832C302.09 297.64 301.774 297.364 301.55 297.004C301.326 296.644 301.21 296.216 301.202 295.72H302.282C302.282 296.16 302.43 296.508 302.726 296.764C303.03 297.02 303.45 297.148 303.986 297.148C304.49 297.148 304.882 297.024 305.162 296.776C305.45 296.528 305.594 296.184 305.594 295.744C305.594 295.392 305.498 295.084 305.306 294.82C305.122 294.556 304.854 294.372 304.502 294.268L303.314 293.896C302.714 293.712 302.25 293.404 301.922 292.972C301.602 292.54 301.442 292.032 301.442 291.448C301.442 290.976 301.546 290.568 301.754 290.224C301.97 289.872 302.27 289.6 302.654 289.408C303.038 289.208 303.49 289.108 304.01 289.108C304.778 289.108 305.394 289.324 305.858 289.756C306.322 290.18 306.558 290.748 306.566 291.46H305.486C305.486 291.028 305.354 290.692 305.09 290.452C304.834 290.204 304.47 290.08 303.998 290.08C303.534 290.08 303.17 290.192 302.906 290.416C302.65 290.64 302.522 290.952 302.522 291.352C302.522 291.712 302.618 292.024 302.81 292.288C303.002 292.552 303.278 292.74 303.638 292.852L304.838 293.236C305.422 293.42 305.874 293.732 306.194 294.172C306.514 294.612 306.674 295.128 306.674 295.72C306.674 296.2 306.562 296.62 306.338 296.98C306.114 297.34 305.798 297.62 305.39 297.82C304.99 298.02 304.522 298.12 303.986 298.12ZM308.614 298V297.016H310.99V290.14L308.614 291.916V290.716L310.594 289.24H312.07V297.016H314.014V298H308.614ZM315.833 298V296.896L318.509 294.052C318.965 293.564 319.297 293.132 319.505 292.756C319.713 292.372 319.817 292.004 319.817 291.652C319.817 291.164 319.681 290.78 319.409 290.5C319.145 290.22 318.781 290.08 318.317 290.08C317.805 290.08 317.401 290.224 317.105 290.512C316.817 290.8 316.673 291.196 316.673 291.7H315.593C315.609 291.172 315.729 290.716 315.953 290.332C316.185 289.94 316.501 289.64 316.901 289.432C317.309 289.224 317.781 289.12 318.317 289.12C318.845 289.12 319.301 289.224 319.685 289.432C320.077 289.632 320.377 289.92 320.585 290.296C320.793 290.672 320.897 291.12 320.897 291.64C320.897 292.136 320.765 292.628 320.501 293.116C320.237 293.604 319.805 294.16 319.205 294.784L317.045 297.016H321.041V298H315.833ZM325.392 298.12C324.864 298.12 324.4 298.016 324 297.808C323.608 297.592 323.304 297.296 323.088 296.92C322.872 296.544 322.764 296.104 322.764 295.6H323.844C323.844 296.088 323.98 296.472 324.252 296.752C324.532 297.024 324.916 297.16 325.404 297.16C325.9 297.16 326.284 297.016 326.556 296.728C326.828 296.44 326.964 296.064 326.964 295.6V294.976C326.964 294.48 326.828 294.096 326.556 293.824C326.284 293.552 325.9 293.416 325.404 293.416H324.504V292.336L326.676 290.224H323.124V289.24H327.768V290.32L325.428 292.588V292.456C326.228 292.456 326.864 292.684 327.336 293.14C327.808 293.596 328.044 294.208 328.044 294.976V295.6C328.044 296.104 327.932 296.544 327.708 296.92C327.492 297.296 327.184 297.592 326.784 297.808C326.384 298.016 325.92 298.12 325.392 298.12ZM334.04 298V296.08H330.08V294.388L333.548 289.24H334.724L331.16 294.616V295.096H334.04V292.96H335.12V298H334.04Z" fill="#838383"/>
<path d="M39.7431 281L42.0231 272.24H43.4751L45.7431 281H44.6511L44.0751 278.672H41.4231L40.8471 281H39.7431ZM41.6391 277.76H43.8471L43.1751 275.06C43.0471 274.548 42.9471 274.12 42.8751 273.776C42.8031 273.432 42.7591 273.208 42.7431 273.104C42.7271 273.208 42.6831 273.432 42.6111 273.776C42.5391 274.12 42.4391 274.544 42.3111 275.048L41.6391 277.76ZM49.9864 281.12C49.4104 281.12 48.9144 281.024 48.4984 280.832C48.0904 280.64 47.7744 280.364 47.5504 280.004C47.3264 279.644 47.2104 279.216 47.2024 278.72H48.2824C48.2824 279.16 48.4304 279.508 48.7264 279.764C49.0304 280.02 49.4504 280.148 49.9864 280.148C50.4904 280.148 50.8824 280.024 51.1624 279.776C51.4504 279.528 51.5944 279.184 51.5944 278.744C51.5944 278.392 51.4984 278.084 51.3064 277.82C51.1224 277.556 50.8544 277.372 50.5024 277.268L49.3144 276.896C48.7144 276.712 48.2504 276.404 47.9224 275.972C47.6024 275.54 47.4424 275.032 47.4424 274.448C47.4424 273.976 47.5464 273.568 47.7544 273.224C47.9704 272.872 48.2704 272.6 48.6544 272.408C49.0384 272.208 49.4904 272.108 50.0104 272.108C50.7784 272.108 51.3944 272.324 51.8584 272.756C52.3224 273.18 52.5584 273.748 52.5664 274.46H51.4864C51.4864 274.028 51.3544 273.692 51.0904 273.452C50.8344 273.204 50.4704 273.08 49.9984 273.08C49.5344 273.08 49.1704 273.192 48.9064 273.416C48.6504 273.64 48.5224 273.952 48.5224 274.352C48.5224 274.712 48.6184 275.024 48.8104 275.288C49.0024 275.552 49.2784 275.74 49.6384 275.852L50.8384 276.236C51.4224 276.42 51.8744 276.732 52.1944 277.172C52.5144 277.612 52.6744 278.128 52.6744 278.72C52.6744 279.2 52.5624 279.62 52.3384 279.98C52.1144 280.34 51.7984 280.62 51.3904 280.82C50.9904 281.02 50.5224 281.12 49.9864 281.12ZM57.1337 281.12C56.5977 281.12 56.1297 281.016 55.7297 280.808C55.3377 280.592 55.0337 280.292 54.8177 279.908C54.6017 279.516 54.4937 279.06 54.4937 278.54V274.7C54.4937 274.172 54.6017 273.716 54.8177 273.332C55.0337 272.948 55.3377 272.652 55.7297 272.444C56.1297 272.228 56.5977 272.12 57.1337 272.12C57.6777 272.12 58.1457 272.228 58.5377 272.444C58.9297 272.652 59.2337 272.948 59.4497 273.332C59.6657 273.716 59.7737 274.172 59.7737 274.7V278.54C59.7737 279.06 59.6657 279.516 59.4497 279.908C59.2337 280.292 58.9257 280.592 58.5257 280.808C58.1337 281.016 57.6697 281.12 57.1337 281.12ZM57.1337 280.196C57.6137 280.196 57.9977 280.044 58.2857 279.74C58.5817 279.428 58.7297 279.028 58.7297 278.54V274.7C58.7297 274.212 58.5817 273.816 58.2857 273.512C57.9977 273.2 57.6137 273.044 57.1337 273.044C56.6537 273.044 56.2657 273.2 55.9697 273.512C55.6817 273.816 55.5377 274.212 55.5377 274.7V278.54C55.5377 279.028 55.6817 279.428 55.9697 279.74C56.2657 280.044 56.6537 280.196 57.1337 280.196ZM57.1337 277.328C56.9177 277.328 56.7417 277.26 56.6057 277.124C56.4777 276.988 56.4137 276.808 56.4137 276.584C56.4137 276.368 56.4777 276.196 56.6057 276.068C56.7417 275.932 56.9177 275.864 57.1337 275.864C57.3497 275.864 57.5217 275.932 57.6497 276.068C57.7857 276.196 57.8537 276.368 57.8537 276.584C57.8537 276.808 57.7857 276.988 57.6497 277.124C57.5217 277.26 57.3497 277.328 57.1337 277.328ZM64.329 281.12C63.793 281.12 63.325 281.016 62.925 280.808C62.533 280.592 62.229 280.292 62.013 279.908C61.797 279.516 61.689 279.06 61.689 278.54V274.7C61.689 274.172 61.797 273.716 62.013 273.332C62.229 272.948 62.533 272.652 62.925 272.444C63.325 272.228 63.793 272.12 64.329 272.12C64.873 272.12 65.341 272.228 65.733 272.444C66.125 272.652 66.429 272.948 66.645 273.332C66.861 273.716 66.969 274.172 66.969 274.7V278.54C66.969 279.06 66.861 279.516 66.645 279.908C66.429 280.292 66.121 280.592 65.721 280.808C65.329 281.016 64.865 281.12 64.329 281.12ZM64.329 280.196C64.809 280.196 65.193 280.044 65.481 279.74C65.777 279.428 65.925 279.028 65.925 278.54V274.7C65.925 274.212 65.777 273.816 65.481 273.512C65.193 273.2 64.809 273.044 64.329 273.044C63.849 273.044 63.461 273.2 63.165 273.512C62.877 273.816 62.733 274.212 62.733 274.7V278.54C62.733 279.028 62.877 279.428 63.165 279.74C63.461 280.044 63.849 280.196 64.329 280.196ZM64.329 277.328C64.113 277.328 63.937 277.26 63.801 277.124C63.673 276.988 63.609 276.808 63.609 276.584C63.609 276.368 63.673 276.196 63.801 276.068C63.937 275.932 64.113 275.864 64.329 275.864C64.545 275.864 64.717 275.932 64.845 276.068C64.981 276.196 65.049 276.368 65.049 276.584C65.049 276.808 64.981 276.988 64.845 277.124C64.717 277.26 64.545 277.328 64.329 277.328ZM71.5243 281.12C70.9883 281.12 70.5203 281.016 70.1203 280.808C69.7283 280.592 69.4243 280.292 69.2083 279.908C68.9923 279.516 68.8843 279.06 68.8843 278.54V274.7C68.8843 274.172 68.9923 273.716 69.2083 273.332C69.4243 272.948 69.7283 272.652 70.1203 272.444C70.5203 272.228 70.9883 272.12 71.5243 272.12C72.0683 272.12 72.5363 272.228 72.9283 272.444C73.3203 272.652 73.6243 272.948 73.8403 273.332C74.0563 273.716 74.1643 274.172 74.1643 274.7V278.54C74.1643 279.06 74.0563 279.516 73.8403 279.908C73.6243 280.292 73.3163 280.592 72.9163 280.808C72.5243 281.016 72.0603 281.12 71.5243 281.12ZM71.5243 280.196C72.0043 280.196 72.3883 280.044 72.6763 279.74C72.9723 279.428 73.1203 279.028 73.1203 278.54V274.7C73.1203 274.212 72.9723 273.816 72.6763 273.512C72.3883 273.2 72.0043 273.044 71.5243 273.044C71.0443 273.044 70.6563 273.2 70.3603 273.512C70.0723 273.816 69.9283 274.212 69.9283 274.7V278.54C69.9283 279.028 70.0723 279.428 70.3603 279.74C70.6563 280.044 71.0443 280.196 71.5243 280.196ZM71.5243 277.328C71.3083 277.328 71.1323 277.26 70.9963 277.124C70.8683 276.988 70.8043 276.808 70.8043 276.584C70.8043 276.368 70.8683 276.196 70.9963 276.068C71.1323 275.932 71.3083 275.864 71.5243 275.864C71.7403 275.864 71.9123 275.932 72.0403 276.068C72.1763 276.196 72.2443 276.368 72.2443 276.584C72.2443 276.808 72.1763 276.988 72.0403 277.124C71.9123 277.26 71.7403 277.328 71.5243 277.328ZM76.1996 281V280.016H78.5756V273.14L76.1996 274.916V273.716L78.1796 272.24H79.6556V280.016H81.5996V281H76.1996Z" fill="#FD7E14" fill-opacity="0.9"/>
<path d="M130.147 208.912C130.098 209.462 130.505 209.948 131.055 209.996L140.021 210.786C140.571 210.835 141.056 210.428 141.104 209.878C141.153 209.328 140.746 208.842 140.196 208.794L132.227 208.092L132.929 200.123C132.978 199.572 132.571 199.087 132.021 199.039C131.471 198.99 130.985 199.397 130.937 199.947L130.147 208.912ZM144.122 195.75L144.93 196.339L144.93 196.339L144.122 195.75ZM159.813 177.393L159.06 176.734L159.813 177.393ZM171.978 163L171.168 162.414L171.168 162.414L171.978 163ZM177.169 155.643L177.868 156.358L177.169 155.643ZM180.695 150.214L179.74 149.918L180.695 150.214ZM185.102 145.716C184.945 145.186 184.388 144.884 183.859 145.041L175.23 147.601C174.701 147.758 174.399 148.315 174.556 148.844C174.713 149.374 175.27 149.676 175.799 149.519L183.469 147.243L185.744 154.913C185.901 155.442 186.458 155.744 186.987 155.587C187.517 155.43 187.819 154.873 187.662 154.344L185.102 145.716ZM131.785 209.766C136.663 205.679 141.17 201.491 144.93 196.339L143.314 195.161C139.697 200.117 135.335 204.182 130.501 208.234L131.785 209.766ZM144.93 196.339C149.68 189.83 155.153 184.238 160.565 178.051L159.06 176.734C153.743 182.812 148.134 188.556 143.314 195.161L144.93 196.339ZM160.565 178.051C164.664 173.367 169.092 168.697 172.788 163.586L171.168 162.414C167.544 167.425 163.231 171.967 159.06 176.734L160.565 178.051ZM172.788 163.586C173.697 162.33 174.488 160.958 175.259 159.742C176.05 158.495 176.856 157.347 177.868 156.358L176.471 154.927C175.29 156.08 174.385 157.386 173.57 158.671C172.736 159.986 172.029 161.223 171.168 162.414L172.788 163.586ZM177.868 156.358C178.61 155.634 179.409 154.628 180.085 153.599C180.756 152.578 181.355 151.462 181.65 150.51L179.74 149.918C179.524 150.614 179.039 151.55 178.414 152.501C177.794 153.443 177.085 154.328 176.471 154.927L177.868 156.358ZM181.65 150.51C181.702 150.342 181.836 150.105 182.091 149.789C182.34 149.48 182.655 149.155 183.013 148.8C183.356 148.458 183.75 148.078 184.092 147.708C184.433 147.339 184.781 146.922 185.022 146.477L183.264 145.523C183.143 145.747 182.931 146.018 182.625 146.349C182.319 146.679 181.977 147.009 181.602 147.382C181.242 147.74 180.858 148.131 180.534 148.533C180.216 148.928 179.902 149.396 179.74 149.918L181.65 150.51Z" fill="white"/>
<g opacity="0.7">
<rect width="55" height="13" transform="translate(49.1431 174)" fill="#21252C"/>
<path d="M51.7871 183V182.356L53.3481 180.697C53.6141 180.412 53.8077 180.16 53.9291 179.941C54.0504 179.717 54.1111 179.502 54.1111 179.297C54.1111 179.012 54.0317 178.788 53.8731 178.625C53.7191 178.462 53.5067 178.38 53.2361 178.38C52.9374 178.38 52.7017 178.464 52.5291 178.632C52.3611 178.8 52.2771 179.031 52.2771 179.325H51.6471C51.6564 179.017 51.7264 178.751 51.8571 178.527C51.9924 178.298 52.1767 178.123 52.4101 178.002C52.6481 177.881 52.9234 177.82 53.2361 177.82C53.5441 177.82 53.8101 177.881 54.0341 178.002C54.2627 178.119 54.4377 178.287 54.5591 178.506C54.6804 178.725 54.7411 178.987 54.7411 179.29C54.7411 179.579 54.6641 179.866 54.5101 180.151C54.3561 180.436 54.1041 180.76 53.7541 181.124L52.4941 182.426H54.8251V183H51.7871ZM57.4403 183.07C57.1277 183.07 56.8547 183.009 56.6213 182.888C56.3927 182.762 56.2153 182.587 56.0893 182.363C55.9633 182.134 55.9003 181.868 55.9003 181.565V179.325C55.9003 179.017 55.9633 178.751 56.0893 178.527C56.2153 178.303 56.3927 178.13 56.6213 178.009C56.8547 177.883 57.1277 177.82 57.4403 177.82C57.7577 177.82 58.0307 177.883 58.2593 178.009C58.488 178.13 58.6653 178.303 58.7913 178.527C58.9173 178.751 58.9803 179.017 58.9803 179.325V181.565C58.9803 181.868 58.9173 182.134 58.7913 182.363C58.6653 182.587 58.4857 182.762 58.2523 182.888C58.0237 183.009 57.753 183.07 57.4403 183.07ZM57.4403 182.531C57.7203 182.531 57.9443 182.442 58.1123 182.265C58.285 182.083 58.3713 181.85 58.3713 181.565V179.325C58.3713 179.04 58.285 178.809 58.1123 178.632C57.9443 178.45 57.7203 178.359 57.4403 178.359C57.1603 178.359 56.934 178.45 56.7613 178.632C56.5933 178.809 56.5093 179.04 56.5093 179.325V181.565C56.5093 181.85 56.5933 182.083 56.7613 182.265C56.934 182.442 57.1603 182.531 57.4403 182.531ZM57.4403 180.858C57.3143 180.858 57.2117 180.818 57.1323 180.739C57.0577 180.66 57.0203 180.555 57.0203 180.424C57.0203 180.298 57.0577 180.198 57.1323 180.123C57.2117 180.044 57.3143 180.004 57.4403 180.004C57.5663 180.004 57.6667 180.044 57.7413 180.123C57.8207 180.198 57.8603 180.298 57.8603 180.424C57.8603 180.555 57.8207 180.66 57.7413 180.739C57.6667 180.818 57.5663 180.858 57.4403 180.858ZM61.5606 183.07C61.2526 183.07 60.9819 183.009 60.7486 182.888C60.5199 182.762 60.3426 182.589 60.2166 182.37C60.0906 182.151 60.0276 181.894 60.0276 181.6H60.6576C60.6576 181.885 60.7369 182.109 60.8956 182.272C61.0589 182.431 61.2829 182.51 61.5676 182.51C61.8569 182.51 62.0809 182.426 62.2396 182.258C62.3983 182.09 62.4776 181.871 62.4776 181.6V181.236C62.4776 180.947 62.3983 180.723 62.2396 180.564C62.0809 180.405 61.8569 180.326 61.5676 180.326H61.0426V179.696L62.3096 178.464H60.2376V177.89H62.9466V178.52L61.5816 179.843V179.766C62.0483 179.766 62.4193 179.899 62.6946 180.165C62.9699 180.431 63.1076 180.788 63.1076 181.236V181.6C63.1076 181.894 63.0423 182.151 62.9116 182.37C62.7856 182.589 62.6059 182.762 62.3726 182.888C62.1393 183.009 61.8686 183.07 61.5606 183.07ZM65.8349 183.07C65.6575 183.07 65.5152 183.019 65.4079 182.916C65.3052 182.813 65.2539 182.676 65.2539 182.503C65.2539 182.321 65.3052 182.176 65.4079 182.069C65.5152 181.962 65.6575 181.908 65.8349 181.908C66.0122 181.908 66.1522 181.962 66.2549 182.069C66.3622 182.176 66.4159 182.321 66.4159 182.503C66.4159 182.676 66.3622 182.813 66.2549 182.916C66.1522 183.019 66.0122 183.07 65.8349 183.07ZM70.0321 183.07C69.7195 183.07 69.4465 183.009 69.2131 182.888C68.9845 182.762 68.8071 182.587 68.6811 182.363C68.5551 182.134 68.4921 181.868 68.4921 181.565V179.325C68.4921 179.017 68.5551 178.751 68.6811 178.527C68.8071 178.303 68.9845 178.13 69.2131 178.009C69.4465 177.883 69.7195 177.82 70.0321 177.82C70.3495 177.82 70.6225 177.883 70.8511 178.009C71.0798 178.13 71.2571 178.303 71.3831 178.527C71.5091 178.751 71.5721 179.017 71.5721 179.325V181.565C71.5721 181.868 71.5091 182.134 71.3831 182.363C71.2571 182.587 71.0775 182.762 70.8441 182.888C70.6155 183.009 70.3448 183.07 70.0321 183.07ZM70.0321 182.531C70.3121 182.531 70.5361 182.442 70.7041 182.265C70.8768 182.083 70.9631 181.85 70.9631 181.565V179.325C70.9631 179.04 70.8768 178.809 70.7041 178.632C70.5361 178.45 70.3121 178.359 70.0321 178.359C69.7521 178.359 69.5258 178.45 69.3531 178.632C69.1851 178.809 69.1011 179.04 69.1011 179.325V181.565C69.1011 181.85 69.1851 182.083 69.3531 182.265C69.5258 182.442 69.7521 182.531 70.0321 182.531ZM70.0321 180.858C69.9061 180.858 69.8035 180.818 69.7241 180.739C69.6495 180.66 69.6121 180.555 69.6121 180.424C69.6121 180.298 69.6495 180.198 69.7241 180.123C69.8035 180.044 69.9061 180.004 70.0321 180.004C70.1581 180.004 70.2585 180.044 70.3331 180.123C70.4125 180.198 70.4521 180.298 70.4521 180.424C70.4521 180.555 70.4125 180.66 70.3331 180.739C70.2585 180.818 70.1581 180.858 70.0321 180.858ZM74.2294 183.07C74.0521 183.07 73.9097 183.019 73.8024 182.916C73.6997 182.813 73.6484 182.676 73.6484 182.503C73.6484 182.321 73.6997 182.176 73.8024 182.069C73.9097 181.962 74.0521 181.908 74.2294 181.908C74.4067 181.908 74.5467 181.962 74.6494 182.069C74.7567 182.176 74.8104 182.321 74.8104 182.503C74.8104 182.676 74.7567 182.813 74.6494 182.916C74.5467 183.019 74.4067 183.07 74.2294 183.07ZM76.9567 183V182.426H78.3427V178.415L76.9567 179.451V178.751L78.1117 177.89H78.9727V182.426H80.1067V183H76.9567ZM81.1539 183V182.426H82.5399V178.415L81.1539 179.451V178.751L82.3089 177.89H83.1699V182.426H84.3039V183H81.1539ZM86.7442 183.07C86.4362 183.07 86.1655 183.009 85.9322 182.888C85.7035 182.762 85.5262 182.589 85.4002 182.37C85.2742 182.151 85.2112 181.894 85.2112 181.6H85.8412C85.8412 181.885 85.9205 182.109 86.0792 182.272C86.2425 182.431 86.4665 182.51 86.7512 182.51C87.0405 182.51 87.2645 182.426 87.4232 182.258C87.5819 182.09 87.6612 181.871 87.6612 181.6V181.236C87.6612 180.947 87.5819 180.723 87.4232 180.564C87.2645 180.405 87.0405 180.326 86.7512 180.326H86.2262V179.696L87.4932 178.464H85.4212V177.89H88.1302V178.52L86.7652 179.843V179.766C87.2319 179.766 87.6029 179.899 87.8782 180.165C88.1535 180.431 88.2912 180.788 88.2912 181.236V181.6C88.2912 181.894 88.2259 182.151 88.0952 182.37C87.9692 182.589 87.7895 182.762 87.5562 182.888C87.3229 183.009 87.0522 183.07 86.7442 183.07ZM91.0185 183.07C90.8411 183.07 90.6988 183.019 90.5915 182.916C90.4888 182.813 90.4375 182.676 90.4375 182.503C90.4375 182.321 90.4888 182.176 90.5915 182.069C90.6988 181.962 90.8411 181.908 91.0185 181.908C91.1958 181.908 91.3358 181.962 91.4385 182.069C91.5458 182.176 91.5995 182.321 91.5995 182.503C91.5995 182.676 91.5458 182.813 91.4385 182.916C91.3358 183.019 91.1958 183.07 91.0185 183.07ZM93.7457 183V182.426H95.1317V178.415L93.7457 179.451V178.751L94.9007 177.89H95.7617V182.426H96.8957V183H93.7457ZM97.957 183V182.356L99.518 180.697C99.784 180.412 99.9777 180.16 100.099 179.941C100.22 179.717 100.281 179.502 100.281 179.297C100.281 179.012 100.202 178.788 100.043 178.625C99.889 178.462 99.6767 178.38 99.406 178.38C99.1073 178.38 98.8717 178.464 98.699 178.632C98.531 178.8 98.447 179.031 98.447 179.325H97.817C97.8263 179.017 97.8963 178.751 98.027 178.527C98.1623 178.298 98.3467 178.123 98.58 178.002C98.818 177.881 99.0933 177.82 99.406 177.82C99.714 177.82 99.98 177.881 100.204 178.002C100.433 178.119 100.608 178.287 100.729 178.506C100.85 178.725 100.911 178.987 100.911 179.29C100.911 179.579 100.834 179.866 100.68 180.151C100.526 180.436 100.274 180.76 99.924 181.124L98.664 182.426H100.995V183H97.957Z" fill="white"/>
</g>
<g opacity="0.7">
<rect width="51" height="13" transform="translate(274.143 252)" fill="#21252C"/>
<path d="M276.773 261V260.426H278.159V256.415L276.773 257.451V256.751L277.928 255.89H278.789V260.426H279.923V261H276.773ZM281.649 261L283.098 258.676L283.07 258.655C282.982 258.786 282.86 258.886 282.706 258.956C282.552 259.026 282.38 259.061 282.188 259.061C281.913 259.061 281.67 258.996 281.46 258.865C281.255 258.734 281.096 258.55 280.984 258.312C280.872 258.069 280.816 257.787 280.816 257.465C280.816 257.134 280.884 256.847 281.019 256.604C281.155 256.357 281.344 256.165 281.586 256.03C281.829 255.89 282.111 255.82 282.433 255.82C282.76 255.82 283.045 255.89 283.287 256.03C283.535 256.165 283.726 256.357 283.861 256.604C283.997 256.847 284.064 257.134 284.064 257.465C284.064 257.722 284.027 257.974 283.952 258.221C283.882 258.468 283.775 258.706 283.63 258.935L282.349 261H281.649ZM282.44 258.55C282.739 258.55 282.979 258.452 283.161 258.256C283.343 258.055 283.434 257.792 283.434 257.465C283.434 257.138 283.343 256.877 283.161 256.681C282.979 256.48 282.739 256.38 282.44 256.38C282.142 256.38 281.901 256.48 281.719 256.681C281.537 256.877 281.446 257.138 281.446 257.465C281.446 257.792 281.537 258.055 281.719 258.256C281.901 258.452 282.142 258.55 282.44 258.55ZM285.182 261V260.356L286.743 258.697C287.009 258.412 287.202 258.16 287.324 257.941C287.445 257.717 287.506 257.502 287.506 257.297C287.506 257.012 287.426 256.788 287.268 256.625C287.114 256.462 286.901 256.38 286.631 256.38C286.332 256.38 286.096 256.464 285.924 256.632C285.756 256.8 285.672 257.031 285.672 257.325H285.042C285.051 257.017 285.121 256.751 285.252 256.527C285.387 256.298 285.571 256.123 285.805 256.002C286.043 255.881 286.318 255.82 286.631 255.82C286.939 255.82 287.205 255.881 287.429 256.002C287.657 256.119 287.832 256.287 287.954 256.506C288.075 256.725 288.136 256.987 288.136 257.29C288.136 257.579 288.059 257.866 287.905 258.151C287.751 258.436 287.499 258.76 287.149 259.124L285.889 260.426H288.22V261H285.182ZM290.835 261.07C290.658 261.07 290.515 261.019 290.408 260.916C290.305 260.813 290.254 260.676 290.254 260.503C290.254 260.321 290.305 260.176 290.408 260.069C290.515 259.962 290.658 259.908 290.835 259.908C291.012 259.908 291.152 259.962 291.255 260.069C291.362 260.176 291.416 260.321 291.416 260.503C291.416 260.676 291.362 260.813 291.255 260.916C291.152 261.019 291.012 261.07 290.835 261.07ZM295.032 261.07C294.719 261.07 294.446 261.009 294.213 260.888C293.984 260.762 293.807 260.587 293.681 260.363C293.555 260.134 293.492 259.868 293.492 259.565V257.325C293.492 257.017 293.555 256.751 293.681 256.527C293.807 256.303 293.984 256.13 294.213 256.009C294.446 255.883 294.719 255.82 295.032 255.82C295.349 255.82 295.622 255.883 295.851 256.009C296.08 256.13 296.257 256.303 296.383 256.527C296.509 256.751 296.572 257.017 296.572 257.325V259.565C296.572 259.868 296.509 260.134 296.383 260.363C296.257 260.587 296.077 260.762 295.844 260.888C295.615 261.009 295.345 261.07 295.032 261.07ZM295.032 260.531C295.312 260.531 295.536 260.442 295.704 260.265C295.877 260.083 295.963 259.85 295.963 259.565V257.325C295.963 257.04 295.877 256.809 295.704 256.632C295.536 256.45 295.312 256.359 295.032 256.359C294.752 256.359 294.526 256.45 294.353 256.632C294.185 256.809 294.101 257.04 294.101 257.325V259.565C294.101 259.85 294.185 260.083 294.353 260.265C294.526 260.442 294.752 260.531 295.032 260.531ZM295.032 258.858C294.906 258.858 294.803 258.818 294.724 258.739C294.649 258.66 294.612 258.555 294.612 258.424C294.612 258.298 294.649 258.198 294.724 258.123C294.803 258.044 294.906 258.004 295.032 258.004C295.158 258.004 295.258 258.044 295.333 258.123C295.412 258.198 295.452 258.298 295.452 258.424C295.452 258.555 295.412 258.66 295.333 258.739C295.258 258.818 295.158 258.858 295.032 258.858ZM299.229 261.07C299.052 261.07 298.91 261.019 298.802 260.916C298.7 260.813 298.648 260.676 298.648 260.503C298.648 260.321 298.7 260.176 298.802 260.069C298.91 259.962 299.052 259.908 299.229 259.908C299.407 259.908 299.547 259.962 299.649 260.069C299.757 260.176 299.81 260.321 299.81 260.503C299.81 260.676 299.757 260.813 299.649 260.916C299.547 261.019 299.407 261.07 299.229 261.07ZM301.971 261V260.356L303.532 258.697C303.798 258.412 303.991 258.16 304.113 257.941C304.234 257.717 304.295 257.502 304.295 257.297C304.295 257.012 304.215 256.788 304.057 256.625C303.903 256.462 303.69 256.38 303.42 256.38C303.121 256.38 302.885 256.464 302.713 256.632C302.545 256.8 302.461 257.031 302.461 257.325H301.831C301.84 257.017 301.91 256.751 302.041 256.527C302.176 256.298 302.36 256.123 302.594 256.002C302.832 255.881 303.107 255.82 303.42 255.82C303.728 255.82 303.994 255.881 304.218 256.002C304.446 256.119 304.621 256.287 304.743 256.506C304.864 256.725 304.925 256.987 304.925 257.29C304.925 257.579 304.848 257.866 304.694 258.151C304.54 258.436 304.288 258.76 303.938 259.124L302.678 260.426H305.009V261H301.971ZM307.624 261.07C307.447 261.07 307.304 261.019 307.197 260.916C307.094 260.813 307.043 260.676 307.043 260.503C307.043 260.321 307.094 260.176 307.197 260.069C307.304 259.962 307.447 259.908 307.624 259.908C307.801 259.908 307.941 259.962 308.044 260.069C308.151 260.176 308.205 260.321 308.205 260.503C308.205 260.676 308.151 260.813 308.044 260.916C307.941 261.019 307.801 261.07 307.624 261.07ZM310.351 261V260.426H311.737V256.415L310.351 257.451V256.751L311.506 255.89H312.367V260.426H313.501V261H310.351ZM316.025 261.07C315.699 261.07 315.412 261.002 315.164 260.867C314.922 260.727 314.733 260.533 314.597 260.286C314.462 260.039 314.394 259.752 314.394 259.425C314.394 259.168 314.429 258.916 314.499 258.669C314.574 258.422 314.684 258.184 314.828 257.955L316.109 255.89H316.809L315.36 258.214L315.388 258.235C315.477 258.104 315.598 258.004 315.752 257.934C315.906 257.864 316.079 257.829 316.27 257.829C316.55 257.829 316.793 257.894 316.998 258.025C317.204 258.156 317.362 258.34 317.474 258.578C317.586 258.816 317.642 259.098 317.642 259.425C317.642 259.752 317.575 260.039 317.439 260.286C317.304 260.533 317.115 260.727 316.872 260.867C316.634 261.002 316.352 261.07 316.025 261.07ZM316.018 260.51C316.317 260.51 316.557 260.412 316.739 260.216C316.921 260.015 317.012 259.752 317.012 259.425C317.012 259.098 316.921 258.837 316.739 258.641C316.557 258.44 316.317 258.34 316.018 258.34C315.72 258.34 315.479 258.44 315.297 258.641C315.115 258.837 315.024 259.098 315.024 259.425C315.024 259.752 315.115 260.015 315.297 260.216C315.479 260.412 315.72 260.51 316.018 260.51ZM320.216 261.07C319.903 261.07 319.63 261.009 319.397 260.888C319.168 260.762 318.991 260.587 318.865 260.363C318.739 260.134 318.676 259.868 318.676 259.565V257.325C318.676 257.017 318.739 256.751 318.865 256.527C318.991 256.303 319.168 256.13 319.397 256.009C319.63 255.883 319.903 255.82 320.216 255.82C320.533 255.82 320.806 255.883 321.035 256.009C321.263 256.13 321.441 256.303 321.567 256.527C321.693 256.751 321.756 257.017 321.756 257.325V259.565C321.756 259.868 321.693 260.134 321.567 260.363C321.441 260.587 321.261 260.762 321.028 260.888C320.799 261.009 320.528 261.07 320.216 261.07ZM320.216 260.531C320.496 260.531 320.72 260.442 320.888 260.265C321.06 260.083 321.147 259.85 321.147 259.565V257.325C321.147 257.04 321.06 256.809 320.888 256.632C320.72 256.45 320.496 256.359 320.216 256.359C319.936 256.359 319.709 256.45 319.537 256.632C319.369 256.809 319.285 257.04 319.285 257.325V259.565C319.285 259.85 319.369 260.083 319.537 260.265C319.709 260.442 319.936 260.531 320.216 260.531ZM320.216 258.858C320.09 258.858 319.987 258.818 319.908 258.739C319.833 258.66 319.796 258.555 319.796 258.424C319.796 258.298 319.833 258.198 319.908 258.123C319.987 258.044 320.09 258.004 320.216 258.004C320.342 258.004 320.442 258.044 320.517 258.123C320.596 258.198 320.636 258.298 320.636 258.424C320.636 258.555 320.596 258.66 320.517 258.739C320.442 258.818 320.342 258.858 320.216 258.858Z" fill="white"/>
</g>
<g opacity="0.7">
<rect width="59" height="13" transform="translate(140.143 44)" fill="#21252C"/>
<path d="M142.773 53V52.426H144.159V48.415L142.773 49.451V48.751L143.928 47.89H144.789V52.426H145.923V53H142.773ZM147.649 53L149.098 50.676L149.07 50.655C148.982 50.7857 148.86 50.886 148.706 50.956C148.552 51.026 148.38 51.061 148.188 51.061C147.913 51.061 147.67 50.9957 147.46 50.865C147.255 50.7343 147.096 50.55 146.984 50.312C146.872 50.0693 146.816 49.787 146.816 49.465C146.816 49.1337 146.884 48.8467 147.019 48.604C147.155 48.3567 147.344 48.1653 147.586 48.03C147.829 47.89 148.111 47.82 148.433 47.82C148.76 47.82 149.045 47.89 149.287 48.03C149.535 48.1653 149.726 48.3567 149.861 48.604C149.997 48.8467 150.064 49.1337 150.064 49.465C150.064 49.7217 150.027 49.9737 149.952 50.221C149.882 50.4683 149.775 50.7063 149.63 50.935L148.349 53H147.649ZM148.44 50.55C148.739 50.55 148.979 50.452 149.161 50.256C149.343 50.0553 149.434 49.7917 149.434 49.465C149.434 49.1383 149.343 48.877 149.161 48.681C148.979 48.4803 148.739 48.38 148.44 48.38C148.142 48.38 147.901 48.4803 147.719 48.681C147.537 48.877 147.446 49.1383 147.446 49.465C147.446 49.7917 147.537 50.0553 147.719 50.256C147.901 50.452 148.142 50.55 148.44 50.55ZM152.638 53.07C152.325 53.07 152.052 53.0163 151.819 52.909C151.59 52.797 151.413 52.6383 151.287 52.433C151.161 52.2277 151.098 51.9873 151.098 51.712C151.098 51.4087 151.179 51.1473 151.343 50.928C151.511 50.7087 151.774 50.5127 152.134 50.34L152.813 50.011C153.018 49.913 153.177 49.7847 153.289 49.626C153.401 49.4673 153.457 49.2923 153.457 49.101C153.457 48.877 153.382 48.6997 153.233 48.569C153.088 48.4383 152.89 48.373 152.638 48.373C152.386 48.373 152.185 48.4407 152.036 48.576C151.891 48.7067 151.819 48.884 151.819 49.108C151.819 49.2947 151.872 49.4673 151.98 49.626C152.092 49.7847 152.243 49.9107 152.435 50.004L153.114 50.326C153.487 50.4987 153.758 50.697 153.926 50.921C154.094 51.1403 154.178 51.404 154.178 51.712C154.178 52.1273 154.038 52.4587 153.758 52.706C153.482 52.9487 153.109 53.07 152.638 53.07ZM152.638 52.51C152.922 52.51 153.146 52.4377 153.31 52.293C153.478 52.1437 153.562 51.9453 153.562 51.698C153.562 51.4973 153.508 51.3153 153.401 51.152C153.293 50.9887 153.139 50.858 152.939 50.76L152.267 50.431C151.893 50.249 151.623 50.053 151.455 49.843C151.287 49.633 151.203 49.381 151.203 49.087C151.203 48.8257 151.261 48.5993 151.378 48.408C151.494 48.2167 151.66 48.0697 151.875 47.967C152.089 47.8643 152.344 47.813 152.638 47.813C152.932 47.813 153.186 47.8643 153.401 47.967C153.615 48.0697 153.781 48.2167 153.898 48.408C154.014 48.5993 154.073 48.8257 154.073 49.087C154.073 49.381 153.989 49.633 153.821 49.843C153.653 50.0483 153.375 50.2467 152.988 50.438L152.316 50.767C152.124 50.8603 151.975 50.9887 151.868 51.152C151.765 51.3107 151.714 51.488 151.714 51.684C151.714 51.936 151.795 52.1367 151.959 52.286C152.127 52.4353 152.353 52.51 152.638 52.51ZM156.835 53.07C156.658 53.07 156.515 53.0187 156.408 52.916C156.305 52.8133 156.254 52.6757 156.254 52.503C156.254 52.321 156.305 52.1763 156.408 52.069C156.515 51.9617 156.658 51.908 156.835 51.908C157.012 51.908 157.152 51.9617 157.255 52.069C157.362 52.1763 157.416 52.321 157.416 52.503C157.416 52.6757 157.362 52.8133 157.255 52.916C157.152 53.0187 157.012 53.07 156.835 53.07ZM161.018 53.07C160.603 53.07 160.262 52.9627 159.996 52.748C159.73 52.5333 159.574 52.244 159.527 51.88H160.157C160.18 52.0807 160.267 52.237 160.416 52.349C160.565 52.4563 160.768 52.51 161.025 52.51C161.319 52.51 161.538 52.4307 161.683 52.272C161.832 52.1133 161.907 51.8893 161.907 51.6V51.103C161.907 50.8137 161.832 50.5897 161.683 50.431C161.538 50.2723 161.321 50.193 161.032 50.193C160.85 50.193 160.691 50.242 160.556 50.34C160.421 50.4333 160.323 50.5593 160.262 50.718H159.632L159.667 47.89H162.355V48.464H160.276L160.255 50.165H160.451L160.255 50.347C160.255 50.1277 160.341 49.955 160.514 49.829C160.691 49.703 160.927 49.64 161.221 49.64C161.636 49.6353 161.958 49.7637 162.187 50.025C162.42 50.2817 162.537 50.641 162.537 51.103V51.6C162.537 52.0527 162.404 52.412 162.138 52.678C161.872 52.9393 161.499 53.07 161.018 53.07ZM163.759 53V52.426H165.145V48.415L163.759 49.451V48.751L164.914 47.89H165.775V52.426H166.909V53H163.759ZM169.427 53.07C169.249 53.07 169.107 53.0187 169 52.916C168.897 52.8133 168.846 52.6757 168.846 52.503C168.846 52.321 168.897 52.1763 169 52.069C169.107 51.9617 169.249 51.908 169.427 51.908C169.604 51.908 169.744 51.9617 169.847 52.069C169.954 52.1763 170.008 52.321 170.008 52.503C170.008 52.6757 169.954 52.8133 169.847 52.916C169.744 53.0187 169.604 53.07 169.427 53.07ZM172.154 53V52.426H173.54V48.415L172.154 49.451V48.751L173.309 47.89H174.17V52.426H175.304V53H172.154ZM177.821 53.07C177.509 53.07 177.236 53.0093 177.002 52.888C176.774 52.762 176.596 52.587 176.47 52.363C176.344 52.1343 176.281 51.8683 176.281 51.565V49.325C176.281 49.017 176.344 48.751 176.47 48.527C176.596 48.303 176.774 48.1303 177.002 48.009C177.236 47.883 177.509 47.82 177.821 47.82C178.139 47.82 178.412 47.883 178.64 48.009C178.869 48.1303 179.046 48.303 179.172 48.527C179.298 48.751 179.361 49.017 179.361 49.325V51.565C179.361 51.8683 179.298 52.1343 179.172 52.363C179.046 52.587 178.867 52.762 178.633 52.888C178.405 53.0093 178.134 53.07 177.821 53.07ZM177.821 52.531C178.101 52.531 178.325 52.4423 178.493 52.265C178.666 52.083 178.752 51.8497 178.752 51.565V49.325C178.752 49.0403 178.666 48.8093 178.493 48.632C178.325 48.45 178.101 48.359 177.821 48.359C177.541 48.359 177.315 48.45 177.142 48.632C176.974 48.8093 176.89 49.0403 176.89 49.325V51.565C176.89 51.8497 176.974 52.083 177.142 52.265C177.315 52.4423 177.541 52.531 177.821 52.531ZM177.821 50.858C177.695 50.858 177.593 50.8183 177.513 50.739C177.439 50.6597 177.401 50.5547 177.401 50.424C177.401 50.298 177.439 50.1977 177.513 50.123C177.593 50.0437 177.695 50.004 177.821 50.004C177.947 50.004 178.048 50.0437 178.122 50.123C178.202 50.1977 178.241 50.298 178.241 50.424C178.241 50.5547 178.202 50.6597 178.122 50.739C178.048 50.8183 177.947 50.858 177.821 50.858ZM182.018 53.07C181.706 53.07 181.433 53.0093 181.199 52.888C180.971 52.762 180.793 52.587 180.667 52.363C180.541 52.1343 180.478 51.8683 180.478 51.565V49.325C180.478 49.017 180.541 48.751 180.667 48.527C180.793 48.303 180.971 48.1303 181.199 48.009C181.433 47.883 181.706 47.82 182.018 47.82C182.336 47.82 182.609 47.883 182.837 48.009C183.066 48.1303 183.243 48.303 183.369 48.527C183.495 48.751 183.558 49.017 183.558 49.325V51.565C183.558 51.8683 183.495 52.1343 183.369 52.363C183.243 52.587 183.064 52.762 182.83 52.888C182.602 53.0093 182.331 53.07 182.018 53.07ZM182.018 52.531C182.298 52.531 182.522 52.4423 182.69 52.265C182.863 52.083 182.949 51.8497 182.949 51.565V49.325C182.949 49.0403 182.863 48.8093 182.69 48.632C182.522 48.45 182.298 48.359 182.018 48.359C181.738 48.359 181.512 48.45 181.339 48.632C181.171 48.8093 181.087 49.0403 181.087 49.325V51.565C181.087 51.8497 181.171 52.083 181.339 52.265C181.512 52.4423 181.738 52.531 182.018 52.531ZM182.018 50.858C181.892 50.858 181.79 50.8183 181.71 50.739C181.636 50.6597 181.598 50.5547 181.598 50.424C181.598 50.298 181.636 50.1977 181.71 50.123C181.79 50.0437 181.892 50.004 182.018 50.004C182.144 50.004 182.245 50.0437 182.319 50.123C182.399 50.1977 182.438 50.298 182.438 50.424C182.438 50.5547 182.399 50.6597 182.319 50.739C182.245 50.8183 182.144 50.858 182.018 50.858ZM186.216 53.07C186.038 53.07 185.896 53.0187 185.789 52.916C185.686 52.8133 185.635 52.6757 185.635 52.503C185.635 52.321 185.686 52.1763 185.789 52.069C185.896 51.9617 186.038 51.908 186.216 51.908C186.393 51.908 186.533 51.9617 186.636 52.069C186.743 52.1763 186.797 52.321 186.797 52.503C186.797 52.6757 186.743 52.8133 186.636 52.916C186.533 53.0187 186.393 53.07 186.216 53.07ZM188.957 53V52.356L190.518 50.697C190.784 50.4123 190.978 50.1603 191.099 49.941C191.22 49.717 191.281 49.5023 191.281 49.297C191.281 49.0123 191.202 48.7883 191.043 48.625C190.889 48.4617 190.677 48.38 190.406 48.38C190.107 48.38 189.872 48.464 189.699 48.632C189.531 48.8 189.447 49.031 189.447 49.325H188.817C188.826 49.017 188.896 48.751 189.027 48.527C189.162 48.2983 189.347 48.1233 189.58 48.002C189.818 47.8807 190.093 47.82 190.406 47.82C190.714 47.82 190.98 47.8807 191.204 48.002C191.433 48.1187 191.608 48.2867 191.729 48.506C191.85 48.7253 191.911 48.9867 191.911 49.29C191.911 49.5793 191.834 49.8663 191.68 50.151C191.526 50.4357 191.274 50.76 190.924 51.124L189.664 52.426H191.995V53H188.957ZM194.617 53.07C194.291 53.07 194.004 53.0023 193.756 52.867C193.514 52.727 193.325 52.5333 193.189 52.286C193.054 52.0387 192.986 51.7517 192.986 51.425C192.986 51.1683 193.021 50.9163 193.091 50.669C193.166 50.4217 193.276 50.1837 193.42 49.955L194.701 47.89H195.401L193.952 50.214L193.98 50.235C194.069 50.1043 194.19 50.004 194.344 49.934C194.498 49.864 194.671 49.829 194.862 49.829C195.142 49.829 195.385 49.8943 195.59 50.025C195.796 50.1557 195.954 50.34 196.066 50.578C196.178 50.816 196.234 51.0983 196.234 51.425C196.234 51.7517 196.167 52.0387 196.031 52.286C195.896 52.5333 195.707 52.727 195.464 52.867C195.226 53.0023 194.944 53.07 194.617 53.07ZM194.61 52.51C194.909 52.51 195.149 52.412 195.331 52.216C195.513 52.0153 195.604 51.7517 195.604 51.425C195.604 51.0983 195.513 50.837 195.331 50.641C195.149 50.4403 194.909 50.34 194.61 50.34C194.312 50.34 194.071 50.4403 193.889 50.641C193.707 50.837 193.616 51.0983 193.616 51.425C193.616 51.7517 193.707 52.0153 193.889 52.216C194.071 52.412 194.312 52.51 194.61 52.51Z" fill="white"/>
</g>
<g opacity="0.7">
<rect width="63" height="13" transform="translate(109.143 91)" fill="#21252C"/>
<path d="M111.773 100V99.426H113.159V95.415L111.773 96.451V95.751L112.928 94.89H113.789V99.426H114.923V100H111.773ZM116.649 100L118.098 97.676L118.07 97.655C117.982 97.7857 117.86 97.886 117.706 97.956C117.552 98.026 117.38 98.061 117.188 98.061C116.913 98.061 116.67 97.9957 116.46 97.865C116.255 97.7343 116.096 97.55 115.984 97.312C115.872 97.0693 115.816 96.787 115.816 96.465C115.816 96.1337 115.884 95.8467 116.019 95.604C116.155 95.3567 116.344 95.1653 116.586 95.03C116.829 94.89 117.111 94.82 117.433 94.82C117.76 94.82 118.045 94.89 118.287 95.03C118.535 95.1653 118.726 95.3567 118.861 95.604C118.997 95.8467 119.064 96.1337 119.064 96.465C119.064 96.7217 119.027 96.9737 118.952 97.221C118.882 97.4683 118.775 97.7063 118.63 97.935L117.349 100H116.649ZM117.44 97.55C117.739 97.55 117.979 97.452 118.161 97.256C118.343 97.0553 118.434 96.7917 118.434 96.465C118.434 96.1383 118.343 95.877 118.161 95.681C117.979 95.4803 117.739 95.38 117.44 95.38C117.142 95.38 116.901 95.4803 116.719 95.681C116.537 95.877 116.446 96.1383 116.446 96.465C116.446 96.7917 116.537 97.0553 116.719 97.256C116.901 97.452 117.142 97.55 117.44 97.55ZM121.638 100.07C121.325 100.07 121.052 100.016 120.819 99.909C120.59 99.797 120.413 99.6383 120.287 99.433C120.161 99.2277 120.098 98.9873 120.098 98.712C120.098 98.4087 120.179 98.1473 120.343 97.928C120.511 97.7087 120.774 97.5127 121.134 97.34L121.813 97.011C122.018 96.913 122.177 96.7847 122.289 96.626C122.401 96.4673 122.457 96.2923 122.457 96.101C122.457 95.877 122.382 95.6997 122.233 95.569C122.088 95.4383 121.89 95.373 121.638 95.373C121.386 95.373 121.185 95.4407 121.036 95.576C120.891 95.7067 120.819 95.884 120.819 96.108C120.819 96.2947 120.872 96.4673 120.98 96.626C121.092 96.7847 121.243 96.9107 121.435 97.004L122.114 97.326C122.487 97.4987 122.758 97.697 122.926 97.921C123.094 98.1403 123.178 98.404 123.178 98.712C123.178 99.1273 123.038 99.4587 122.758 99.706C122.482 99.9487 122.109 100.07 121.638 100.07ZM121.638 99.51C121.922 99.51 122.146 99.4377 122.31 99.293C122.478 99.1437 122.562 98.9453 122.562 98.698C122.562 98.4973 122.508 98.3153 122.401 98.152C122.293 97.9887 122.139 97.858 121.939 97.76L121.267 97.431C120.893 97.249 120.623 97.053 120.455 96.843C120.287 96.633 120.203 96.381 120.203 96.087C120.203 95.8257 120.261 95.5993 120.378 95.408C120.494 95.2167 120.66 95.0697 120.875 94.967C121.089 94.8643 121.344 94.813 121.638 94.813C121.932 94.813 122.186 94.8643 122.401 94.967C122.615 95.0697 122.781 95.2167 122.898 95.408C123.014 95.5993 123.073 95.8257 123.073 96.087C123.073 96.381 122.989 96.633 122.821 96.843C122.653 97.0483 122.375 97.2467 121.988 97.438L121.316 97.767C121.124 97.8603 120.975 97.9887 120.868 98.152C120.765 98.3107 120.714 98.488 120.714 98.684C120.714 98.936 120.795 99.1367 120.959 99.286C121.127 99.4353 121.353 99.51 121.638 99.51ZM125.835 100.07C125.658 100.07 125.515 100.019 125.408 99.916C125.305 99.8133 125.254 99.6757 125.254 99.503C125.254 99.321 125.305 99.1763 125.408 99.069C125.515 98.9617 125.658 98.908 125.835 98.908C126.012 98.908 126.152 98.9617 126.255 99.069C126.362 99.1763 126.416 99.321 126.416 99.503C126.416 99.6757 126.362 99.8133 126.255 99.916C126.152 100.019 126.012 100.07 125.835 100.07ZM130.018 100.07C129.603 100.07 129.262 99.9627 128.996 99.748C128.73 99.5333 128.574 99.244 128.527 98.88H129.157C129.18 99.0807 129.267 99.237 129.416 99.349C129.565 99.4563 129.768 99.51 130.025 99.51C130.319 99.51 130.538 99.4307 130.683 99.272C130.832 99.1133 130.907 98.8893 130.907 98.6V98.103C130.907 97.8137 130.832 97.5897 130.683 97.431C130.538 97.2723 130.321 97.193 130.032 97.193C129.85 97.193 129.691 97.242 129.556 97.34C129.421 97.4333 129.323 97.5593 129.262 97.718H128.632L128.667 94.89H131.355V95.464H129.276L129.255 97.165H129.451L129.255 97.347C129.255 97.1277 129.341 96.955 129.514 96.829C129.691 96.703 129.927 96.64 130.221 96.64C130.636 96.6353 130.958 96.7637 131.187 97.025C131.42 97.2817 131.537 97.641 131.537 98.103V98.6C131.537 99.0527 131.404 99.412 131.138 99.678C130.872 99.9393 130.499 100.07 130.018 100.07ZM132.759 100V99.426H134.145V95.415L132.759 96.451V95.751L133.914 94.89H134.775V99.426H135.909V100H132.759ZM138.427 100.07C138.249 100.07 138.107 100.019 138 99.916C137.897 99.8133 137.846 99.6757 137.846 99.503C137.846 99.321 137.897 99.1763 138 99.069C138.107 98.9617 138.249 98.908 138.427 98.908C138.604 98.908 138.744 98.9617 138.847 99.069C138.954 99.1763 139.008 99.321 139.008 99.503C139.008 99.6757 138.954 99.8133 138.847 99.916C138.744 100.019 138.604 100.07 138.427 100.07ZM141.154 100V99.426H142.54V95.415L141.154 96.451V95.751L142.309 94.89H143.17V99.426H144.304V100H141.154ZM146.821 100.07C146.509 100.07 146.236 100.009 146.002 99.888C145.774 99.762 145.596 99.587 145.47 99.363C145.344 99.1343 145.281 98.8683 145.281 98.565V96.325C145.281 96.017 145.344 95.751 145.47 95.527C145.596 95.303 145.774 95.1303 146.002 95.009C146.236 94.883 146.509 94.82 146.821 94.82C147.139 94.82 147.412 94.883 147.64 95.009C147.869 95.1303 148.046 95.303 148.172 95.527C148.298 95.751 148.361 96.017 148.361 96.325V98.565C148.361 98.8683 148.298 99.1343 148.172 99.363C148.046 99.587 147.867 99.762 147.633 99.888C147.405 100.009 147.134 100.07 146.821 100.07ZM146.821 99.531C147.101 99.531 147.325 99.4423 147.493 99.265C147.666 99.083 147.752 98.8497 147.752 98.565V96.325C147.752 96.0403 147.666 95.8093 147.493 95.632C147.325 95.45 147.101 95.359 146.821 95.359C146.541 95.359 146.315 95.45 146.142 95.632C145.974 95.8093 145.89 96.0403 145.89 96.325V98.565C145.89 98.8497 145.974 99.083 146.142 99.265C146.315 99.4423 146.541 99.531 146.821 99.531ZM146.821 97.858C146.695 97.858 146.593 97.8183 146.513 97.739C146.439 97.6597 146.401 97.5547 146.401 97.424C146.401 97.298 146.439 97.1977 146.513 97.123C146.593 97.0437 146.695 97.004 146.821 97.004C146.947 97.004 147.048 97.0437 147.122 97.123C147.202 97.1977 147.241 97.298 147.241 97.424C147.241 97.5547 147.202 97.6597 147.122 97.739C147.048 97.8183 146.947 97.858 146.821 97.858ZM151.018 100.07C150.706 100.07 150.433 100.009 150.199 99.888C149.971 99.762 149.793 99.587 149.667 99.363C149.541 99.1343 149.478 98.8683 149.478 98.565V96.325C149.478 96.017 149.541 95.751 149.667 95.527C149.793 95.303 149.971 95.1303 150.199 95.009C150.433 94.883 150.706 94.82 151.018 94.82C151.336 94.82 151.609 94.883 151.837 95.009C152.066 95.1303 152.243 95.303 152.369 95.527C152.495 95.751 152.558 96.017 152.558 96.325V98.565C152.558 98.8683 152.495 99.1343 152.369 99.363C152.243 99.587 152.064 99.762 151.83 99.888C151.602 100.009 151.331 100.07 151.018 100.07ZM151.018 99.531C151.298 99.531 151.522 99.4423 151.69 99.265C151.863 99.083 151.949 98.8497 151.949 98.565V96.325C151.949 96.0403 151.863 95.8093 151.69 95.632C151.522 95.45 151.298 95.359 151.018 95.359C150.738 95.359 150.512 95.45 150.339 95.632C150.171 95.8093 150.087 96.0403 150.087 96.325V98.565C150.087 98.8497 150.171 99.083 150.339 99.265C150.512 99.4423 150.738 99.531 151.018 99.531ZM151.018 97.858C150.892 97.858 150.79 97.8183 150.71 97.739C150.636 97.6597 150.598 97.5547 150.598 97.424C150.598 97.298 150.636 97.1977 150.71 97.123C150.79 97.0437 150.892 97.004 151.018 97.004C151.144 97.004 151.245 97.0437 151.319 97.123C151.399 97.1977 151.438 97.298 151.438 97.424C151.438 97.5547 151.399 97.6597 151.319 97.739C151.245 97.8183 151.144 97.858 151.018 97.858ZM155.216 100.07C155.038 100.07 154.896 100.019 154.789 99.916C154.686 99.8133 154.635 99.6757 154.635 99.503C154.635 99.321 154.686 99.1763 154.789 99.069C154.896 98.9617 155.038 98.908 155.216 98.908C155.393 98.908 155.533 98.9617 155.636 99.069C155.743 99.1763 155.797 99.321 155.797 99.503C155.797 99.6757 155.743 99.8133 155.636 99.916C155.533 100.019 155.393 100.07 155.216 100.07ZM157.957 100V99.356L159.518 97.697C159.784 97.4123 159.978 97.1603 160.099 96.941C160.22 96.717 160.281 96.5023 160.281 96.297C160.281 96.0123 160.202 95.7883 160.043 95.625C159.889 95.4617 159.677 95.38 159.406 95.38C159.107 95.38 158.872 95.464 158.699 95.632C158.531 95.8 158.447 96.031 158.447 96.325H157.817C157.826 96.017 157.896 95.751 158.027 95.527C158.162 95.2983 158.347 95.1233 158.58 95.002C158.818 94.8807 159.093 94.82 159.406 94.82C159.714 94.82 159.98 94.8807 160.204 95.002C160.433 95.1187 160.608 95.2867 160.729 95.506C160.85 95.7253 160.911 95.9867 160.911 96.29C160.911 96.5793 160.834 96.8663 160.68 97.151C160.526 97.4357 160.274 97.76 159.924 98.124L158.664 99.426H160.995V100H157.957ZM163.533 100.07C163.225 100.07 162.955 100.009 162.721 99.888C162.493 99.762 162.315 99.5893 162.189 99.37C162.063 99.1507 162 98.894 162 98.6H162.63C162.63 98.8847 162.71 99.1087 162.868 99.272C163.032 99.4307 163.256 99.51 163.54 99.51C163.83 99.51 164.054 99.426 164.212 99.258C164.371 99.09 164.45 98.8707 164.45 98.6V98.236C164.45 97.9467 164.371 97.7227 164.212 97.564C164.054 97.4053 163.83 97.326 163.54 97.326H163.015V96.696L164.282 95.464H162.21V94.89H164.919V95.52L163.554 96.843V96.766C164.021 96.766 164.392 96.899 164.667 97.165C164.943 97.431 165.08 97.788 165.08 98.236V98.6C165.08 98.894 165.015 99.1507 164.884 99.37C164.758 99.5893 164.579 99.762 164.345 99.888C164.112 100.009 163.841 100.07 163.533 100.07ZM166.338 100V99.426H167.724V95.415L166.338 96.451V95.751L167.493 94.89H168.354V99.426H169.488V100H166.338Z" fill="white"/>
</g>
<path d="M197.143 146C199.507 146.319 202.142 154.336 203.36 156.637C205.876 161.386 208.7 165.191 210.708 170.39C212.826 175.873 215.858 180.951 218.182 186.244C219.674 189.642 221.22 192.888 223.143 196" stroke="#575757" stroke-width="2" stroke-linecap="round"/>
</svg>
